/* XPM */
static char * 0_xpm[] = {
"50 50 260 2",
"  	c None",
". 	c #79A230",
"+ 	c #779F2F",
"@ 	c #769E2F",
"# 	c #78A030",
"$ 	c #78A02F",
"% 	c #779E2E",
"& 	c #79A130",
"* 	c #7BA531",
"= 	c #82AC35",
"- 	c #80AA34",
"; 	c #7CA531",
"> 	c #7AA330",
", 	c #7AA231",
"' 	c #779E2F",
") 	c #78A130",
"! 	c #71972C",
"~ 	c #759C2E",
"{ 	c #7FA933",
"] 	c #7DA632",
"^ 	c #7BA431",
"/ 	c #78A12F",
"( 	c #769D2E",
"_ 	c #82AD34",
": 	c #7DA732",
"< 	c #86B137",
"[ 	c #769D2F",
"} 	c #72992D",
"| 	c #70962C",
"1 	c #769E2E",
"2 	c #85AF36",
"3 	c #7CA532",
"4 	c #7AA230",
"5 	c #7CA632",
"6 	c #7EA732",
"7 	c #749B2E",
"8 	c #739A2D",
"9 	c #77A030",
"0 	c #749A2E",
"a 	c #7AA331",
"b 	c #769F2F",
"c 	c #759D2E",
"d 	c #77A02F",
"e 	c #86B136",
"f 	c #7CA631",
"g 	c #80AA33",
"h 	c #71982D",
"i 	c #14182E",
"j 	c #72982D",
"k 	c #83AE35",
"l 	c #7EA832",
"m 	c #7FA833",
"n 	c #7EA833",
"o 	c #749C2E",
"p 	c #86B036",
"q 	c #81AB34",
"r 	c #87B237",
"s 	c #85B035",
"t 	c #93949D",
"u 	c #A2A4AB",
"v 	c #44485F",
"w 	c #464A61",
"x 	c #585B6C",
"y 	c #4D5065",
"z 	c #6F942B",
"A 	c #84AF35",
"B 	c #84AE35",
"C 	c #6A6C79",
"D 	c #A3A7C2",
"E 	c #AAAEC6",
"F 	c #DFE0E8",
"G 	c #BEC0D3",
"H 	c #34384F",
"I 	c #84AE36",
"J 	c #81AC34",
"K 	c #7AA431",
"L 	c #85B036",
"M 	c #848690",
"N 	c #79A330",
"O 	c #71962C",
"P 	c #3F4254",
"Q 	c #6A6D7F",
"R 	c #636780",
"S 	c #C4C7D7",
"T 	c #C7CAD9",
"U 	c #D0D2DF",
"V 	c #797D93",
"W 	c #555971",
"X 	c #1B1F36",
"Y 	c #70952C",
"Z 	c #535770",
"` 	c #B0B4CB",
" .	c #7B7F99",
"..	c #1C2036",
"+.	c #6E932B",
"@.	c #6F952C",
"#.	c #83AE34",
"$.	c #80AB33",
"%.	c #789F2F",
"&.	c #4E526C",
"*.	c #969AB9",
"=.	c #D2D3DF",
"-.	c #D3D5E0",
";.	c #D7D9E3",
">.	c #A3A7C1",
",.	c #727692",
"'.	c #393F5D",
").	c #686F99",
"!.	c #757CA2",
"~.	c #51577B",
"{.	c #191D34",
"].	c #7EA733",
"^.	c #4B4F6A",
"/.	c #8F94B4",
"(.	c #51556C",
"_.	c #B7BACF",
":.	c #CBCDDB",
"<.	c #777B91",
"[.	c #7E83A1",
"}.	c #6D728F",
"|.	c #1B1F35",
"1.	c #71972D",
"2.	c #82AC34",
"3.	c #24283F",
"4.	c #C1C4D5",
"5.	c #8387A1",
"6.	c #73992D",
"7.	c #5C6078",
"8.	c #84AF36",
"9.	c #80A933",
"0.	c #17192F",
"a.	c #2E1C32",
"b.	c #6D667D",
"c.	c #ADB1C8",
"d.	c #1F1930",
"e.	c #251B31",
"f.	c #AD2E45",
"g.	c #C68797",
"h.	c #582238",
"i.	c #80AB34",
"j.	c #7FA932",
"k.	c #33374E",
"l.	c #42465E",
"m.	c #72768F",
"n.	c #747891",
"o.	c #7D7D94",
"p.	c #CEA5B2",
"q.	c #AF9DB3",
"r.	c #9095B4",
"s.	c #9C8C9F",
"t.	c #737791",
"u.	c #4B4F66",
"v.	c #3E425A",
"w.	c #81AB33",
"x.	c #A4A8C1",
"y.	c #BDC0D3",
"z.	c #D8DAE4",
"A.	c #C5C7D2",
"B.	c #2B2E43",
"C.	c #7F8191",
"D.	c #888B9A",
"E.	c #404356",
"F.	c #C8CAD3",
"G.	c #7A7C8B",
"H.	c #858795",
"I.	c #414557",
"J.	c #55586A",
"K.	c #9B9DAA",
"L.	c #8C8F9C",
"M.	c #5F6273",
"N.	c #676A7A",
"O.	c #4E5263",
"P.	c #83AD35",
"Q.	c #3B3E51",
"R.	c #B2B3BF",
"S.	c #7FA832",
"T.	c #161A30",
"U.	c #15192F",
"V.	c #272A3F",
"W.	c #747786",
"X.	c #9194A3",
"Y.	c #9A9DAE",
"Z.	c #6E7181",
"`.	c #43486A",
" +	c #464C6C",
".+	c #646880",
"++	c #74778B",
"@+	c #515674",
"#+	c #65687C",
"$+	c #848797",
"%+	c #B9BCCE",
"&+	c #A5A7B8",
"*+	c #7F8190",
"=+	c #3F4255",
"-+	c #15192E",
";+	c #1F2338",
">+	c #A7A8B4",
",+	c #6F759E",
"'+	c #8288AB",
")+	c #272B46",
"!+	c #3C4057",
"~+	c #9B9FBA",
"{+	c #BEC1D3",
"]+	c #BDBFC9",
"^+	c #36394D",
"/+	c #D5D6E1",
"(+	c #B0B4CA",
"_+	c #6B6F85",
":+	c #757BA2",
"<+	c #7C82A7",
"[+	c #BABED0",
"}+	c #C5C7D6",
"|+	c #2A2E48",
"1+	c #3F4359",
"2+	c #A8ABC2",
"3+	c #C5C8D7",
"4+	c #739A2E",
"5+	c #DDDFE7",
"6+	c #818493",
"7+	c #9CA1BD",
"8+	c #A7ABC3",
"9+	c #B7BACE",
"0+	c #32364E",
"a+	c #4B4E60",
"b+	c #CDCFDA",
"c+	c #DBDCE6",
"d+	c #4C5062",
"e+	c #D4D5DE",
"f+	c #797C8B",
"g+	c #7B7F97",
"h+	c #9A9EBB",
"i+	c #9295AC",
"j+	c #292D44",
"k+	c #3A3D50",
"l+	c #9496A3",
"m+	c #888B99",
"n+	c #2C2F44",
"o+	c #1D223A",
"p+	c #868BAE",
"q+	c #252942",
"r+	c #6B729B",
"s+	c #8388AB",
"t+	c #3F4463",
"u+	c #7E829C",
"v+	c #9397B7",
"w+	c #676B87",
"x+	c #3B3F56",
"y+	c #9297B7",
"z+	c #868AA6",
"A+	c #2B2F46",
"B+	c #7BA331",
"C+	c #8B8FA9",
"D+	c #33374D",
"E+	c #2B2F45",
"F+	c #2C3047",
"G+	c #272B42",
"H+	c #749A2D",
"I+	c #82AD35",
"J+	c #83AD34",
"K+	c #82AB34",
". + @ # $ $ @ % $ & * = - ; > . , ' ' & . . @ + . ) @ ! ~ . ~ + . + @ . . . { { ] > . ] ^ . / $ $ @ ",
". . . ( ~ ( ) ) ~ $ . > { _ * : < ^ . . . . . . . @ [ ) . . ~ + . } | . . . 1 ^ 2 3 . < { ) ( ~ ( $ ",
"@ @ @ ~ @ $ . ) ~ $ ) @ 4 5 > ^ 6 7 8 $ 9 + . ; = > ) . # @ $ & . ~ 0 . . . ( $ : a . 6 4 @ $ $ $ b ",
"~ ~ c c $ a . ) c $ $ [ + / . . & | | d + ( . ] e ; . & # ' & . . ' ( & . . ( ' . & & . ' c & > a + ",
"~ + ) ) f g ^ . ) ' ' $ ~ h + $ ( i i i i i i i i i i i i i i i i ) # ( $ . ) ) & ' ( . 7 j / ] k ^ ",
"+ ] { l m l > . + + + . @ 7 $ $ ~ i i i i i i i i i i i i i i i i { n + + + . 9 o ~ ~ + ~ 7 + ; p q ",
"> k r s { . . ) ~ $ . . . . . t u v v w x x x x x x x x x x y v v e p . @ ~ ) [ z 8 ~ ~ + ) c 4 A e ",
"> k r 3 > . . ) ~ $ ; B 2 B C i i D D E F F F F F F F F F F G D D H i i - I a [ z 8 ~ ) 8 j d . * _ ",
"> J 2 K . ) d + ( d ^ k p L M i i D D E F F F F F F F F F F G D D H i i q I N [ O 7 ( . 7 h / . > { ",
". ^ * . d ~ ! h ) ' + ^ i P Q R R S S T F F F F F F F F F F U S S V R W X i [ @ d ) ) . 1 ~ & . . # ",
". o 8 ) ) [ Y Y + + + + i i Z D D F F F F F F F F F F F F F F F F ` D  ...i i + + ) . . ) + + + + + ",
") ! +./ . d | @.~ $ ) c i i Z D D F F F F F F F F F F F F F F F F ` D  ...i i $ c ) . . . ) c ~ ~ $ ",
"~ $ . ( + ) ( ( . . ) c i i Z D D F F F F F F F F F F F F F F F F ` D  ...i i : #.* . . q B ^ . . @ ",
"@ $ $ 1 + $ & 4 ] a ) @ i i Z D D F F F F F F F F F F F F F F F F ` D  ...i i ; $.l ] $ 6 - > . . + ",
") @ ~ ) + %.q A < : . . i i &.*.*.=.=.-.F F F F F F F F F F ;.=.=.>.*.,.X i i . ^ B < ~ ( ' & . . . ",
"@ } O [ + & 5 l L k - > i i '.).).D D E F F F F F F F F F F G D D !.).~.{.i i . N ] ].$ $ d @ @ @ ) ",
"~ | +.~ d . . a J s A : i i '.).).D D E F F F F F F F F F F G D D !.).~.{.i i . ) . . / d @ ~ c @ ) ",
"~ | +./ . . . . . $.s r i i ^././.v v (._._.:.F F F F F _._.<.v v [./.}.|.i i $ c ) . ~ 1.Y 7 @ . . ",
"@ j | + ) . $ $ . ] g 2.i i Z D D i i 3.D D 4.F F F F F D D Z i i 5.D  ...i i @ 8 @ $ @ 7 6.( + . . ",
". @ ~ ~ + ) ( ( . @ ( & i i Z D D i i 3.D D 4.F F F F F D D Z i i 5.D  ...i i 6.z 8 ~ . . . . . . . ",
". @ ~ ) . ) ( ( . @ 0 | i i Z D D i i i i i 7.D D D D D i i i i i 5.D  ...i i ) d ( ~ . . ; 8.J . @ ",
". + @ ] * & + $ ].& o z i i Z D D i i i i i 7.D D D D D i i i i i 5.D  ...i i : ] $ @ . ; 9.L J . + ",
". . . p q . . * r 6 + @.i i Z D D i i 0.a.a.b.c.c.c.c.c.a.a.d.i i 5.D  ...i i L L 5 . . q < A $.. . ",
"+ ) . m - 9.K * r 6 # ~ i i Z D D i i e.f.f.g.F F F F F f.f.h.i i 5.D  ...i i i.L 2.q . g B j.f . $ ",
"~ $ . . { 2 * * r 6 . . i i Z D D i i e.f.f.g.F F F F F f.f.h.i i 5.D  ...i i : A < r . { 2.a . . @ ",
". @ ~ ) + ( ) . . . ) c + . k.v l.m.n.o.p.p.q.r.r.r.r.r.p.p.s.n.t.u.v v.@ ~ ) $ ' w.A . + ( & c z @ ",
". @ ~ ) ) + & / 7 @ + + # . . i i D D E F F x.).).).).).F F G D D H i i $ + . ) $ : { . $ + + @ 8 d ",
". @ ~ ) . . . d +.6.( & . . . i i D D E F F x.).).).).).F F y.D D H i i . . . . . . . . . ) c @ . . ",
". ) $ . : q ^ ) [ + d @ i i i i i z.z.A.B.B.C.=.=.=.=.=.B.B.D.z.z.E.i i i i + d . . . @ # . $ / . 7 ",
". > K a { B ^ . ) . $ ~ i i i i i F F F.i i G.F F F F F i i H.F F I.i i i i i ' ) ) / ~ + . a a ) } ",
"> k r s { . . ) ~ $ + @.J.x x x x K.K.L.i i x K.K.K.K.K.i i M.K.K.N.x x x x O.$ 7 Y +.~ + * #.$.. . ",
"P.A L 6 ^ & + @ ~ i i Q.F F F F F i i i i i i i i i i i i i i i i R.F F F F H.i i | +.$ ) > f S.2.; ",
"r L A a . ) ( ~ ~ i i I.F F F F F i i i i i i i i i i i i i i i i R.F F F F H.i T.| +.. . . . 6 < ] ",
"A l ; . . . ) U.V.W.H.X.G G Y.Z.Z.`.`. +.+.+++H.H.H.H.H..+.+@+`.`.#+Z.$+%+G &+H.*+=+-+[ [ @ . : A 5 ",
"g > $ . & # i i ;+>+F =.D D .+i i ).).,+D D 4.F F F F F D D '+).).)+i !+~+D {+F ]+^+i i 7 7 ) ; g > ",
") @ ~ ) d ( i i ;+>+F /+(+(+_+i i :+:+<+(+(+[+}+}+}+}+}+(+(+/.:+:+|+i 1+2+(+3+F ]+^+i i 4+! $ . . @ ",
"@ $ $ . & $ i i ;+>+F 5+z.z.6+i i 7+7+D z.z.8+!.!.!.!.!.z.z.9+7+7+0+i a+b+z.c+F ]+^+i i d @ @ + . ) ",
"~ $ . . . ) i i ;+>+F F F F H.i i D D E F F x.).).).).).F F G D D H i d+e+F F F ]+^+i i . ) c @ . . ",
") ! +./ 7 @.7 i ..f+K.K.K.K.M.i i t.t.g+9+9+h+<+<+<+<+<+9+9+i+t.t.j+i k+l+K.K.K.m+n+i i . . . $ ~ $ ",
". o 8 + 8 Y ( + . i i i i i i i i i i o+).).p+D D D D D ).).'.i i i i i i i i i i 8.e . . & d c } + ",
". & ) ( 8 j $ . . i i i i i i i i ....q+r+r+s+~+~+~+~+~+r+r+t+....T.i i i i i i i P.2.) . ) @ 7 | @ ",
". ' ( ) $ $ . . . & ) . d [ i i i  . .u+v+v+w+!+!+!+!+x+y+v+z+ . .A+i i J s a : k B+%.( d . ) ) + @ ",
". ' ( > > . . . * > > * & ( # i i D D D D D 7.i i i i i D D D D D H i i { _ a ; g $ ~ ( d . ) & . ' ",
". . . #.{ . . * r 6 5 L - & ( i i C+C+C+C+C+W i i i i i C+C+C+C+C+D+i i . . . $ ~ ~ ~ . . ) c @ . . ",
". m q ; B+. . ^ e P.- { 3 & ( $ l E+F+F+F+F+G+^ + & ^ q A+F+F+F+F+@ o . . . + + @ } 1.. . a ].] . d ",
"] k < $ %.. ) 4 2.L k 4 ) $ ( @ . i i i i i U.~ H+$ ; B i i i i i . . 5 a . 1 + $ | +.) & * P.J 3 $ ",
"L L A > . ) @ 1 a q q + c c ~ @ . > 4 @ ) a & @ @.+ . ^ n #.L g . . K L : . & . $ | +.c d . K l 2 3 ",
"e _ $.& & & + + . : : + @ [ H+~ . . & + $ . $ 1 j % ) . 5 $.e g . f n I+5 . @ @ + 8 j @ + $ . : L ] ",
"#.; . ( + . . . . @ ( & . $ ! } . > > . . ) ~ @ . [ [ . . . k { . = 2 . . . | ! ( # . . + 1 ) 5 J+; ",
"; > . ) + ' & ) @ c ( & $ @ @ + . K+J ^ $ ( ~ @ . [ [ . # @ f . @ B+3 @ @ @ @ + $ ' @ . ) d @ + & . "};
