/* XPM */
static char * 1_xpm[] = {
"50 50 252 2",
"  	c None",
". 	c #79A230",
"+ 	c #779F2F",
"@ 	c #769E2F",
"# 	c #78A030",
"$ 	c #78A02F",
"% 	c #779E2E",
"& 	c #79A130",
"* 	c #7BA531",
"= 	c #82AC35",
"- 	c #80AA34",
"; 	c #7CA531",
"> 	c #7AA330",
", 	c #7AA231",
"' 	c #779E2F",
") 	c #78A130",
"! 	c #71972C",
"~ 	c #759C2E",
"{ 	c #7FA933",
"] 	c #7DA632",
"^ 	c #7BA431",
"/ 	c #78A12F",
"( 	c #769D2E",
"_ 	c #82AD34",
": 	c #7DA732",
"< 	c #86B137",
"[ 	c #769D2F",
"} 	c #72992D",
"| 	c #70962C",
"1 	c #769E2E",
"2 	c #85AF36",
"3 	c #7CA532",
"4 	c #7AA230",
"5 	c #7CA632",
"6 	c #7EA732",
"7 	c #749B2E",
"8 	c #739A2D",
"9 	c #77A030",
"0 	c #749A2E",
"a 	c #7AA331",
"b 	c #769F2F",
"c 	c #759D2E",
"d 	c #77A02F",
"e 	c #86B136",
"f 	c #7CA631",
"g 	c #80AA33",
"h 	c #71982D",
"i 	c #6F952C",
"j 	c #84AF35",
"k 	c #83AD35",
"l 	c #789F2F",
"m 	c #72982D",
"n 	c #83AE35",
"o 	c #7EA832",
"p 	c #7FA833",
"q 	c #7FA932",
"r 	c #81AB34",
"s 	c #7EA833",
"t 	c #749C2E",
"u 	c #86B036",
"v 	c #87B237",
"w 	c #85B035",
"x 	c #14182E",
"y 	c #6F942B",
"z 	c #84AE35",
"A 	c #82AC34",
"B 	c #84AE34",
"C 	c #84AE36",
"D 	c #81AC34",
"E 	c #7AA431",
"F 	c #85B036",
"G 	c #23273E",
"H 	c #24283E",
"I 	c #2B2E43",
"J 	c #282C41",
"K 	c #79A330",
"L 	c #71962C",
"M 	c #747891",
"N 	c #8387A1",
"O 	c #B2B4BF",
"P 	c #9DA0B2",
"Q 	c #40445B",
"R 	c #70952C",
"S 	c #8B8FA9",
"T 	c #A3A7C2",
"U 	c #DFE0E8",
"V 	c #C4C7D7",
"W 	c #44485F",
"X 	c #6E932B",
"Y 	c #363A50",
"Z 	c #535770",
"` 	c #53576F",
" .	c #A9ACC0",
"..	c #BEC0D3",
"+.	c #D0D2DF",
"@.	c #777A91",
"#.	c #4C5068",
"$.	c #22263C",
"%.	c #D5D6E2",
"&.	c #B7BACF",
"*.	c #83AE34",
"=.	c #D5D6E1",
"-.	c #B7BACE",
";.	c #80AB33",
">.	c #D5D7E2",
",.	c #7EA733",
"'.	c #40445C",
").	c #969AB9",
"!.	c #C5C7D7",
"~.	c #D2D3DF",
"{.	c #D9DAE4",
"].	c #AAAEC6",
"^.	c #797D9A",
"/.	c #22263D",
"(.	c #303552",
"_.	c #686F99",
":.	c #999EBB",
"<.	c #7C82A7",
"[.	c #555C81",
"}.	c #1D223A",
"|.	c #71972D",
"1.	c #73992D",
"2.	c #373C56",
"3.	c #747893",
"4.	c #CBCDDB",
"5.	c #CDCFDD",
"6.	c #A4A7BA",
"7.	c #797EA0",
"8.	c #656A8C",
"9.	c #20243C",
"0.	c #2C3047",
"a.	c #636780",
"b.	c #84AF36",
"c.	c #80A933",
"d.	c #575B72",
"e.	c #ADB1C8",
"f.	c #3A3E55",
"g.	c #21253C",
"h.	c #24283F",
"i.	c #80AB34",
"j.	c #251B31",
"k.	c #514B62",
"l.	c #A7ABC5",
"m.	c #32293F",
"n.	c #1D192F",
"o.	c #AD2E45",
"p.	c #BE697B",
"q.	c #AE3148",
"r.	c #69243B",
"s.	c #81AB33",
"t.	c #B13C52",
"u.	c #737791",
"v.	c #15192F",
"w.	c #353950",
"x.	c #5C6078",
"y.	c #5B5F77",
"z.	c #51556D",
"A.	c #C58494",
"B.	c #C68797",
"C.	c #BB92A5",
"D.	c #A4A8C1",
"E.	c #C28A9C",
"F.	c #977689",
"G.	c #5B5F78",
"H.	c #52566F",
"I.	c #15192E",
"J.	c #B2B4C2",
"K.	c #414557",
"L.	c #6D7082",
"M.	c #505365",
"N.	c #818494",
"O.	c #545769",
"P.	c #BDBFC9",
"Q.	c #585B6C",
"R.	c #6E7181",
"S.	c #7FA832",
"T.	c #23273B",
"U.	c #36394D",
"V.	c #9C9DAA",
"W.	c #9B9DAA",
"X.	c #181C31",
"Y.	c #6E7080",
"Z.	c #858795",
"`.	c #8B8E9C",
" +	c #A3A6B8",
".+	c #656980",
"++	c #646880",
"@+	c #6E7287",
"#+	c #43486A",
"$+	c #7D8091",
"%+	c #76798C",
"&+	c #6B6E81",
"*+	c #808293",
"=+	c #B5B7CA",
"-+	c #ABADBE",
";+	c #7E808F",
">+	c #3B3E51",
",+	c #739A2E",
"'+	c #D8DAE4",
")+	c #34384F",
"!+	c #9397B2",
"~+	c #C8CAD3",
"{+	c #414457",
"]+	c #DDDEE7",
"^+	c #8E91A2",
"/+	c #3C4057",
"(+	c #9095B4",
"_+	c #9094B5",
":+	c #9095B3",
"<+	c #6E738E",
"[+	c #3D4054",
"}+	c #B7B9C8",
"|+	c #D2D4E0",
"1+	c #6F759E",
"2+	c #434969",
"3+	c #191D33",
"4+	c #828492",
"5+	c #A7A8B4",
"6+	c #767888",
"7+	c #787FA4",
"8+	c #787EA0",
"9+	c #7B7F99",
"0+	c #7B7F98",
"a+	c #787EA3",
"b+	c #5D6382",
"c+	c #35384C",
"d+	c #9698A5",
"e+	c #9A9CA9",
"f+	c #3C4053",
"g+	c #24283C",
"h+	c #1F2338",
"i+	c #1C1F35",
"j+	c #8488A2",
"k+	c #9B9FBA",
"l+	c #A0A4C0",
"m+	c #737792",
"n+	c #1C2036",
"o+	c #1B1F36",
"p+	c #9195B0",
"q+	c #9EA2BD",
"r+	c #41455D",
"s+	c #171A30",
"t+	c #1E2237",
"u+	c #7BA331",
"v+	c #9397B1",
"w+	c #52566E",
"x+	c #5D617A",
"y+	c #3A3E56",
"z+	c #749A2D",
"A+	c #82AD35",
"B+	c #83AD34",
"C+	c #82AB34",
". + @ # $ $ @ % $ & * = - ; > . , ' ' & . . @ + . ) @ ! ~ . ~ + . + @ . . . { { ] > . ] ^ . / $ $ @ ",
". . . ( ~ ( ) ) ~ $ . > { _ * : < ^ . . . . . . . @ [ ) . . ~ + . } | . . . 1 ^ 2 3 . < { ) ( ~ ( $ ",
"@ @ @ ~ @ $ . ) ~ $ ) @ 4 5 > ^ 6 7 8 $ 9 + . ; = > ) . # @ $ & . ~ 0 . . . ( $ : a . 6 4 @ $ $ $ b ",
"~ ~ c c $ a . ) c $ $ [ + / . . & | | d + ( . ] e ; . & # ' & . . ' ( & . . ( ' . & & . ' c & > a + ",
"~ + ) ) f g ^ . ) ' ' $ ~ h + $ ( i | d + ( . f j ; & ( 3 k ( l . ) # ( $ . ) ) & ' ( . 7 m / ] n ^ ",
"+ ] { o p o > . + + + . @ 7 $ $ ~ 8 7 ) $ + . ^ q . + + ^ r + > o { s + + + . 9 t ~ ~ + ~ 7 + ; u r ",
"> n v w { . . ) ~ $ . . . . . $ ~ x x x x x x x x x x x x x x x x e u . @ ~ ) [ y 8 ~ ~ + ) c 4 j e ",
"> n v 3 > . . ) ~ $ ; z 2 z ; . ) x x x x x x x x x x x x x x x x A B . - C a [ y 8 ~ ) 8 m d . * _ ",
"> D 2 E . ) d + ( d ^ n u F s ^ . G H H I I I I I I I I I I J H H { D ^ r C K [ L 7 ( . 7 h / . > { ",
". ^ * . d ~ ! h ) ' + ^ - w 2 x x M N N O O O O O O O O O O P N N Q x x ^ # [ @ d ) ) . 1 ~ & . . # ",
". t 8 ) ) [ R R + + + + > q z x x S T T U U U U U U U U U U V T T W x x . + + + + ) . . ) + + + + + ",
") ! X / . d | i ~ $ ) c + a Y Z `  .....U U U U U U U U U U +.....@.Z #.$.. . $ c ) . . . ) c ~ ~ $ ",
"~ $ . ( + ) ( ( . . ) c x x W T T %.U U U U U U U U U U U U U U U &.T N H x x : *.* . . r z ^ . . @ ",
"@ $ $ 1 + $ & 4 ] a ) @ x x W T T =.U U U U U U U U U U U U U U U -.T N H x x ; ;.o ] $ 6 - > . . + ",
") @ ~ ) + l r j < : . . x x W T T >.U U U U U U U U U U U U U U U -.T N H x x . ^ z < ~ ( ' & . . . ",
"@ } L [ + & 5 o F n - > x x W T T >.U U U U U U U U U U U U U U U &.T N H x x . K ] ,.$ $ d @ @ @ ) ",
"~ | X ~ d . . a D w j : x x '.).).!.~.~.U U U U U U U U U U {.~.~.].).^./.x x . ) . . / d @ ~ c @ ) ",
"~ | X / . . . . . ;.w v x x (._._.:.T T U U U U U U U U U U V T T <._.[.}.x x $ c ) . ~ |.R 7 @ . . ",
"@ m | + ) . $ $ . ] g A x x (._._.:.T T U U U U U U U U U U V T T <._.[.}.x x @ 8 @ $ @ 7 1.( + . . ",
". @ ~ ~ + ) ( ( . @ ( & x x 2.<.<.3.M M 4.4.~.U U U U U 5.4.6.M M 7.<.8.9.x x 1.y 8 ~ . . . . . . . ",
". @ ~ ) . ) ( ( . @ 0 | x x W T T 0.x x T T &.U U U U U ].T a.x x M T N H x x ) d ( ~ . . ; b.D . @ ",
". + @ ] * & + $ ,.& t y x x W T T 0.x x T T &.U U U U U ].T a.x x M T N H x x : ] $ @ . ; c.F D . + ",
". . . u r . . * v 6 + i x x W T T 0.x x 0.0.d.e.e.e.e.e.f.0.g.x x M T N H x x F F 5 . . r < j ;.. . ",
"+ ) . p - c.E * v 6 # ~ x x W T T 0.x x x x W T T T T T h.x x x x M T N H x x i.F A r . g z q f . $ ",
"~ $ . . { 2 * * v 6 . . x x W T T 0.x x j.j.k.].].].].l.m.j.n.x x M T N H x x : j < v . { A a . . @ ",
". @ ~ ) + ( ) . . . ) c x x W T T 0.x x o.o.p.U U U U U q.o.r.x x M T N H x x $ ' s.j . + ( & c y @ ",
". @ ~ ) ) + & / 7 @ + + x x W T T 0.x x o.o.p.U U U U U t.o.r.x x u.T N H x x ) $ : { . $ + + @ 8 d ",
". @ ~ ) . . . d X 1.( & v.v.w.x.y.z.x.y.A.B.C.D.D.D.D.D.E.B.F.x.x.G.x.H./.v.. . . . . . . ) c @ . . ",
". ) $ . : r ^ ) [ + d @ # . . x x S T T U U -._._._._._.~.U V T T W x x . . + d . . . @ # . $ / . 7 ",
". > E a { z ^ . ) . $ ~ @ . . x x S T T U U -._._._._._.~.U V T T W x x K . ( ' ) ) / ~ + . a a ) } ",
"> n v w { . . ) ~ $ + i I.x v.x x J.~.~.K.K.L.V V V V V M.K.N.~.~.O.x x x x v.$ 7 R X ~ + * *.;.. . ",
"k j F 6 ^ & + @ ~ $ + i x x x x x P.U U x x Q.U U U U U I x R.U U Q.x x x x x + + | X $ ) > f S.A ; ",
"v F j a . ) ( ~ ~ $ + i x x x x x P.U U x x Q.U U U U U I x R.U U Q.x x x x T.@ $ | X . . . . 6 < ] ",
"j o ; . . . ) / / x x I U U U U U U.x x x x x x x x x x x x x x x V.U U U U W.x x @ b [ [ @ . : j 5 ",
"g > $ . & # . . . x x I U U U U U U.x x x x x x x x x x x x x x x V.U U U U W.x x ) . @ 7 7 ) ; g > ",
") @ ~ ) d ( ) x X.Y.Z.`..... +R.R..+++++Z.Z.@+#+#+#+#+#+$+Z.%+++++&+R.*+=+..-+Z.;+>+x . ,+! $ . . @ ",
"@ $ $ . & $ @ x x W.U '+T T M x x S T T U U -._._._._._.~.U V T T W x )+!+T &.U ~+{+x x d @ @ + . ) ",
"~ $ . . . ) ( x x W.U '+T T M x x S T T U U -._._._._._.~.U V T T W x )+!+T &.U ~+{+x x . ) c @ . . ",
") ! X / 7 i 7 x x W.U ]+4.4.^+x x /+W W (+(+(+_+_+_+_+_+:+(+<+W W H x [+}+4.|+U ~+{+x x . . . $ ~ $ ",
". t 8 + 8 R ( x x W.U U U U V.x x x x x _._.<.T T T T T 1+_.2+x x x x {+~+U U U ~+{+x x . & d c } + ",
". & ) ( 8 m $ x 3+4+5+5+5+5+6+x x w./+/+7+7+8+9+9+9+9+0+a+7+b+/+/+g.x c+d+5+5+5+e+f+x x . ) @ 7 | @ ",
". ' ( ) $ $ . . . g+h+h+h+h+i+x x j+k+k+l+l+m+n+n+n+n+o+p+l+q+k+k+r+x s+t+h+h+h+h+u+l ( d . ) ) + @ ",
". ' ( > > . . . * x x x x x x x x S T T T T u.x x x x x v+T T T T W x x x x x x x $ ~ ( d . ) & . ' ",
". . . *.{ . . * v 6 x x x x x x x y.a.a.a.a.w+x x x x x x+a.a.a.a.y+x x x x x x ~ ~ ~ . . ) c @ . . ",
". p r ; u+. . ^ e k - { 3 & ( $ o x x x x x x ^ + & ^ r x x x x x @ t . . . + + @ } |.. . a ,.] . d ",
"] n < $ l . ) 4 A F n 4 ) $ ( @ . x x x x x v.~ z+$ ; z x x x x x . . 5 a . 1 + $ | X ) & * k D 3 $ ",
"F F j > . ) @ 1 a r r + c c ~ @ . > 4 @ ) a & @ i + . ^ s *.F g . . E F : . & . $ | X c d . E o 2 3 ",
"e _ ;.& & & + + . : : + @ [ z+~ . . & + $ . $ 1 m % ) . 5 ;.e g . f s A+5 . @ @ + 8 m @ + $ . : F ] ",
"*.; . ( + . . . . @ ( & . $ ! } . > > . . ) ~ @ . [ [ . . . n { . = 2 . . . | ! ( # . . + 1 ) 5 B+; ",
"; > . ) + ' & ) @ c ( & $ @ @ + . C+D ^ $ ( ~ @ . [ [ . # @ f . @ u+3 @ @ @ @ + $ ' @ . ) d @ + & . "};
