/* XPM */
static char * 0_xpm[] = {
"50 50 100 2",
"  	c None",
". 	c #79A230",
"+ 	c #779F2F",
"@ 	c #769E2F",
"# 	c #78A030",
"$ 	c #78A02F",
"% 	c #779E2E",
"& 	c #79A130",
"* 	c #7BA531",
"= 	c #82AC35",
"- 	c #80AA34",
"; 	c #7CA531",
"> 	c #7AA330",
", 	c #7AA231",
"' 	c #779E2F",
") 	c #78A130",
"! 	c #71972C",
"~ 	c #759C2E",
"{ 	c #7FA933",
"] 	c #7DA632",
"^ 	c #7BA431",
"/ 	c #78A12F",
"( 	c #769D2E",
"_ 	c #82AD34",
": 	c #7DA732",
"< 	c #86B137",
"[ 	c #769D2F",
"} 	c #72992D",
"| 	c #70962C",
"1 	c #769E2E",
"2 	c #85AF36",
"3 	c #7CA532",
"4 	c #7AA230",
"5 	c #7CA632",
"6 	c #7EA732",
"7 	c #749B2E",
"8 	c #739A2D",
"9 	c #77A030",
"0 	c #749A2E",
"a 	c #7AA331",
"b 	c #769F2F",
"c 	c #759D2E",
"d 	c #77A02F",
"e 	c #86B136",
"f 	c #7CA631",
"g 	c #80AA33",
"h 	c #71982D",
"i 	c #6F952C",
"j 	c #84AF35",
"k 	c #83AD35",
"l 	c #789F2F",
"m 	c #72982D",
"n 	c #83AE35",
"o 	c #7EA832",
"p 	c #7FA833",
"q 	c #7FA932",
"r 	c #81AB34",
"s 	c #7EA833",
"t 	c #749C2E",
"u 	c #86B036",
"v 	c #87B237",
"w 	c #85B035",
"x 	c #242429",
"y 	c #29292F",
"z 	c #6F942B",
"A 	c #84AE35",
"B 	c #3B3B44",
"C 	c #4E4E5B",
"D 	c #171D21",
"E 	c #82AC34",
"F 	c #84AE34",
"G 	c #84AE36",
"H 	c #81AC34",
"I 	c #7AA431",
"J 	c #85B036",
"K 	c #79A330",
"L 	c #71962C",
"M 	c #70952C",
"N 	c #6E932B",
"O 	c #83AE34",
"P 	c #1C1C20",
"Q 	c #2F2F36",
"R 	c #71972D",
"S 	c #73992D",
"T 	c #84AF36",
"U 	c #80A933",
"V 	c #80AB33",
"W 	c #7FA832",
"X 	c #202024",
"Y 	c #1D1E22",
"Z 	c #1D1D21",
"` 	c #739A2E",
" .	c #212124",
"..	c #7BA331",
"+.	c #81AA34",
"@.	c #7EA733",
"#.	c #749A2D",
"$.	c #82AD35",
"%.	c #83AD34",
"&.	c #82AB34",
". + @ # $ $ @ % $ & * = - ; > . , ' ' & . . @ + . ) @ ! ~ . ~ + . + @ . . . { { ] > . ] ^ . / $ $ @ ",
". . . ( ~ ( ) ) ~ $ . > { _ * : < ^ . . . . . . . @ [ ) . . ~ + . } | . . . 1 ^ 2 3 . < { ) ( ~ ( $ ",
"@ @ @ ~ @ $ . ) ~ $ ) @ 4 5 > ^ 6 7 8 $ 9 + . ; = > ) . # @ $ & . ~ 0 . . . ( $ : a . 6 4 @ $ $ $ b ",
"~ ~ c c $ a . ) c $ $ [ + / . . & | | d + ( . ] e ; . & # ' & . . ' ( & . . ( ' . & & . ' c & > a + ",
"~ + ) ) f g ^ . ) ' ' $ ~ h + $ ( i | d + ( . f j ; & ( 3 k ( l . ) # ( $ . ) ) & ' ( . 7 m / ] n ^ ",
"+ ] { o p o > . + + + . @ 7 $ $ ~ 8 7 ) $ + . ^ q . + + ^ r + > o { s + + + . 9 t ~ ~ + ~ 7 + ; u r ",
"> n v w { . . ) ~ $ . . . . . $ ~ ) . x y x x x x [ [ . . . . o j e u . @ ~ ) [ z 8 ~ ~ + ) c 4 j e ",
"> n v 3 > . . ) ~ $ ; A 2 A ; . ) x x B B B B C C x x D 7 . ( $ ^ E F . - G a [ z 8 ~ ) 8 m d . * _ ",
"> H 2 I . ) d + ( d ^ n u J s x x B B B B B B B B B C x x x x x . { H ^ r G K [ L 7 ( . 7 h / . > { ",
". ^ * . d ~ ! h ) ' + ^ - w x B B B B B B B B B B B B B C C C C x x ; _ ^ # [ @ d ) ) . 1 ~ & . . # ",
". t 8 ) ) [ M M + + + + > x B B B B B B B B B B B B B B B B B B B C x x . + + + + ) . . ) + + + + + ",
") ! N / . d | i ~ $ ) c x B B B B B B B B B B B B B B B B B B B B B B C x x . $ c ) . . . ) c ~ ~ $ ",
"~ $ . ( + ) ( ( . . x x B B B B B B B B B B B B B B B B B B B B B B B B B C x x O * . . r A ^ . . @ ",
"@ $ $ 1 + $ & 4 ] P Q Q B B B B B B B B B B B B B B B B B B B B B B B B B B B C x o ] $ 6 - > . . + ",
") @ ~ ) + l r j P Q Q Q Q Q B B B B B B B B B B B B B B B B B B B B B B B B B B B x < ~ ( ' & . . . ",
"@ } L [ + & 5 o P Q Q Q Q Q Q Q B B B B B B B B B B B B B B B B B B B B B B B B B B P $ $ d @ @ @ ) ",
"~ | N ~ d . . a P Q Q Q Q Q Q Q Q Q B B B B B B B B B B B B B B B B B B B B B B B B P / d @ ~ c @ ) ",
"~ | N / . . . . P Q Q Q Q Q Q Q Q Q Q Q Q C C B B B B B B B B B B B B B B B B B Q Q P ~ R M 7 @ . . ",
"@ m | + ) . $ $ P Q Q Q Q Q Q Q Q Q Q Q Q Q Q Q Q C C C C B B B B B B Q Q Q Q Q Q Q P D 7 S ( + . . ",
". @ ~ ~ + ) ( P Q Q Q Q Q Q y Q Q Q Q Q Q Q Q Q Q Q Q Q Q Q Q Q Q Q Q Q Q Q Q Q y y y P . . . . . . ",
". @ ~ ) . ) ( P Q Q Q Q Q Q Q y y Q Q Q Q Q Q Q Q Q Q Q Q Q Q Q Q Q Q Q Q y y y y x x x P ; T H . @ ",
". + @ ] * & + P y Q Q Q Q Q Q Q y Q Q Q Q Q Q Q Q Q Q Q Q Q Q Q Q y y y y y x x x y B y P U J H . + ",
". . . u r . P B B y y Q Q Q Q Q Q Q y Q Q Q Q Q Q Q Q Q Q Q Q y y y y x x x B B B B B B P < j V . . ",
"+ ) . p - P B B B B B y y Q Q Q Q Q Q Q Q Q Q Q Q Q Q Q Q y y y y x B B B B B B B B B Q P A q f . $ ",
"~ $ . . P Q B B B B B B B y Q Q Q Q Q Q Q Q Q Q Q Q Q Q y y y B B B B B B B B B B B Q Q Q P a . . @ ",
". @ ~ ) P Q Q B B B B B B B y Q Q Q Q Q Q Q Q Q Q Q y y y B B B B B B B B B B B Q Q Q Q Q P & c z @ ",
". @ ~ ) P Q Q Q Q B B B B B B y y y Q Q Q Q Q y y y y y B B B B B B B B B B B Q Q Q Q Q Q P + @ 8 d ",
". @ ~ P Q Q Q Q Q Q B B B B B B B B y y y y y y y y x B B B B B B B B B B B Q Q Q Q Q Q y P c @ . . ",
". ) $ P y Q Q Q Q Q Q Q C C B B B B B B B B x x x Q B B B B B B B B B B Q Q Q Q Q Q Q Q y P $ / . 7 ",
". > I P y Q Q Q Q Q Q Q Q Q Q Q C B B B B B B x B B B B B B B B B B B Q Q Q Q Q Q Q Q Q y P a a ) } ",
"> n v w P y Q Q Q Q Q Q Q Q Q Q Q Q Q Q Q Q Q B B B B B B B B B B C Q Q Q Q Q Q Q Q Q y y P O V . . ",
"k j J 6 P y Q Q Q Q Q Q Q Q Q Q Q Q Q Q Q x B B B B B B B B C C Q Q Q Q Q Q Q Q Q Q Q y P > f W E ; ",
"v J j a P y y Q Q Q Q Q Q Q Q Q Q Q Q Q Q x Q B B B B B B Q Q Q Q Q Q Q Q Q Q Q Q Q y y P . . 6 < ] ",
"j o ; . X x y y Q Q Q Q Q Q Q Q Q Q Q Q x Q Q Q Q Q Q Q Q Q Q Q Q Q Q Q Q Q Q Q Q y y P Y @ . : j 5 ",
"g > $ . Y Y x y y y Q Q Q Q Q Q Q Q Q Q x Q Q Q Q Q Q Q Q Q Q Q Q Q Q Q Q Q Q Q y y y P Z 7 ) ; g > ",
") @ ~ ) Y Y Y x x y y y Q Q Q Q Q Q Q Q x Q Q Q Q Q Q Q Q Q Q Q Q Q Q Q Q Q Q y y y x Z ` ! $ . . @ ",
"@ $ $ . & P P P Z x x y y y y y Q Q Q Q x y Q Q Q Q Q Q Q Q Q Q Q Q Q Q Q y y y y x Y Z d @ @ + . ) ",
"~ $ . . . ) P Z Z X  .x x x x y y y y y x y y y Q Q Q Q Q Q Q Q Q y y y y y y y x X Y Y . ) c @ . . ",
") ! N / 7 i 7 Z Z X X Y X Y X x x x x x x x y y y y y y y y y y y y y y y x x x X Y Y . . . . $ ~ $ ",
". t 8 + 8 M ( + Z Z Y Y Y Y Y Y Y P P x x x x x x x x x x x x x x x x x x Z Y Y Y Y e . . & d c } + ",
". & ) ( 8 m $ . . + Z Z Y Y Y Y P P Z Z Z Z Z Z Z Z X  .Y X Y Y Y P Z Z Z Z Z P Y k E ) . ) @ 7 | @ ",
". ' ( ) $ $ . . . & ) . d [ $ 5 2 ^ . . & ) . . . [ c d $ ) . d ( ( @ ^ H w a : n ..l ( d . ) ) + @ ",
". ' ( > > . . . * > > * & ( # : v : ^ . . . * I . ' ' . . . ) + ( ~ ~ . { _ a ; g $ ~ ( d . ) & . ' ",
". . . O { . . * v 6 5 J - & ( 4 j v 2 * . I v n > . . . . . ~ + . m i . . . . $ ~ ~ ~ . . ) c @ . . ",
". p r ; ... . ^ e k - { 3 & ( $ o T A ^ : +.] ^ + & ^ r : . + ) . @ t . . . + + @ } R . . a @.] . d ",
"] n < $ l . ) 4 E J n 4 ) $ ( @ . V g > p = ( ~ #.$ ; A - * 5 ^ . . . 5 a . 1 + $ | N ) & * k H 3 $ ",
"J J j > . ) @ 1 a r r + c c ~ @ . > 4 @ ) a & @ i + . ^ s O J g . . I J : . & . $ | N c d . I o 2 3 ",
"e _ V & & & + + . : : + @ [ #.~ . . & + $ . $ 1 m % ) . 5 V e g . f s $.5 . @ @ + 8 m @ + $ . : J ] ",
"O ; . ( + . . . . @ ( & . $ ! } . > > . . ) ~ @ . [ [ . . . n { . = 2 . . . | ! ( # . . + 1 ) 5 %.; ",
"; > . ) + ' & ) @ c ( & $ @ @ + . &.H ^ $ ( ~ @ . [ [ . # @ f . @ ..3 @ @ @ @ + $ ' @ . ) d @ + & . "};
