/* XPM */
static char * 0_xpm[] = {
"50 50 105 2",
"  	c None",
". 	c #79A230",
"+ 	c #779F2F",
"@ 	c #769E2F",
"# 	c #78A030",
"$ 	c #78A02F",
"% 	c #779E2E",
"& 	c #79A130",
"* 	c #7BA531",
"= 	c #82AC35",
"- 	c #80AA34",
"; 	c #7CA531",
"> 	c #7AA330",
", 	c #7AA231",
"' 	c #779E2F",
") 	c #78A130",
"! 	c #71972C",
"~ 	c #759C2E",
"{ 	c #7FA933",
"] 	c #7DA632",
"^ 	c #7BA431",
"/ 	c #78A12F",
"( 	c #769D2E",
"_ 	c #82AD34",
": 	c #7DA732",
"< 	c #86B137",
"[ 	c #769D2F",
"} 	c #72992D",
"| 	c #70962C",
"1 	c #769E2E",
"2 	c #85AF36",
"3 	c #7CA532",
"4 	c #7AA230",
"5 	c #7CA632",
"6 	c #7EA732",
"7 	c #749B2E",
"8 	c #739A2D",
"9 	c #77A030",
"0 	c #749A2E",
"a 	c #7AA331",
"b 	c #769F2F",
"c 	c #759D2E",
"d 	c #77A02F",
"e 	c #86B136",
"f 	c #7CA631",
"g 	c #80AA33",
"h 	c #71982D",
"i 	c #6F952C",
"j 	c #84AF35",
"k 	c #83AD35",
"l 	c #789F2F",
"m 	c #72982D",
"n 	c #83AE35",
"o 	c #7EA832",
"p 	c #7FA833",
"q 	c #7FA932",
"r 	c #81AB34",
"s 	c #7EA833",
"t 	c #749C2E",
"u 	c #86B036",
"v 	c #87B237",
"w 	c #85B035",
"x 	c #6F942B",
"y 	c #84AE35",
"z 	c #D24C40",
"A 	c #82AC34",
"B 	c #84AE34",
"C 	c #84AE36",
"D 	c #81AC34",
"E 	c #7AA431",
"F 	c #85B036",
"G 	c #6E932B",
"H 	c #73992D",
"I 	c #79A330",
"J 	c #71962C",
"K 	c #000000",
"L 	c #70952C",
"M 	c #81AA33",
"N 	c #83AE34",
"O 	c #80AB33",
"P 	c #F7E8AA",
"Q 	c #811B12",
"R 	c #7EA733",
"S 	c #82AD35",
"T 	c #71972D",
"U 	c #7FAA33",
"V 	c #84AF36",
"W 	c #80A933",
"X 	c #DD0000",
"Y 	c #80AB34",
"Z 	c #81AB33",
"` 	c #26DB7A",
" .	c #803C3C",
"..	c #FFFFFF",
"+.	c #454545",
"@.	c #7FA832",
"#.	c #7BA331",
"$.	c #171717",
"%.	c #759D2F",
"&.	c #739A2E",
"*.	c #81AA34",
"=.	c #C6C6C6",
"-.	c #749A2D",
";.	c #83AD34",
">.	c #82AB34",
". + @ # $ $ @ % $ & * = - ; > . , ' ' & . . @ + . ) @ ! ~ . ~ + . + @ . . . { { ] > . ] ^ . / $ $ @ ",
". . . ( ~ ( ) ) ~ $ . > { _ * : < ^ . . . . . . . @ [ ) . . ~ + . } | . . . 1 ^ 2 3 . < { ) ( ~ ( $ ",
"@ @ @ ~ @ $ . ) ~ $ ) @ 4 5 > ^ 6 7 8 $ 9 + . ; = > ) . # @ $ & . ~ 0 . . . ( $ : a . 6 4 @ $ $ $ b ",
"~ ~ c c $ a . ) c $ $ [ + / . . & | | d + ( . ] e ; . & # ' & . . ' ( & . . ( ' . & & . ' c & > a + ",
"~ + ) ) f g ^ . ) ' ' $ ~ h + $ ( i | d + ( . f j ; & ( 3 k ( l . ) # ( $ . ) ) & ' ( . 7 m / ] n ^ ",
"+ ] { o p o > . + + + . @ 7 $ $ ~ 8 7 ) $ + . ^ q . + + ^ r + > o { s + + + . 9 t ~ ~ + ~ 7 + ; u r ",
"> n v w { . . ) ~ $ . . . . . $ ~ ) . . . . . . . [ [ . . . . o j e u . @ ~ ) [ x 8 ~ ~ + ) c 4 j e ",
"> n v 3 > . . ) ~ $ ; y 2 y ; . ) . ^ z s . . . . & ' | 7 . ( $ ^ A B . - C a [ x 8 ~ ) 8 m d . * _ ",
"> D 2 E . ) d + ( d ^ n u F s ^ . ^ z z z z z z z z z G H ) ( + . { D ^ r C I [ J 7 ( . 7 h / . > { ",
". ^ * . d ~ ! h ) ' + ^ - w 2 r . z z K K K z K K K z z z z ) & . a ; _ ^ # [ @ d ) ) . 1 ~ & . . # ",
". t 8 ) ) [ L L + + + + > q y M z z K K K z K K K z z K K z z z . . . o . + + + + ) . . ) + + + + + ",
") ! G / . d | i ~ $ ) c + a A z K z K K z K K K z z K K K K z + . . . . . . . $ c ) . . . ) c ~ ~ $ ",
"~ $ . ( + ) ( ( . . ) c ~ ~ ~ z K z K K z K K K z K K K K K z z G H ( . @ ~ ) : N * . . r y ^ . . @ ",
"@ $ $ 1 + $ & 4 ] a ) @ @ [ z K K K K K K K K K K K K K z z K z z 0 @ . + @ . ; O o ] $ 6 - > . . + ",
") @ ~ ) + l r j < : . . . ) z K K P P P P P Q Q P Q K K K K K K z c . . . . . . ^ y < ~ ( ' & . . . ",
"@ } J [ + & 5 o F n - > R r z K P P P P P P P Q Q Q Q K K K K K z 1 + . + @ . . I ] R $ $ d @ @ @ ) ",
"~ | G ~ d . . a D w j : - S z P P P P P P P Q Q Q Q Q Q K K K K z + @ . @ ~ ) . ) . . / d @ ~ c @ ) ",
"~ | G / . . . . . O w v - . z P P P P P P P Q P Q P P Q K K z z z z . . @ ~ ) $ c ) . ~ T L 7 @ . . ",
"@ m | + ) . $ $ . ] g A R z z P P P P P P P P P P P P Q K K K K K z $ $ + @ d @ 8 @ $ @ 7 H ( + . . ",
". @ ~ ~ + ) ( ( . @ ( & . & ( P P K K P P P K K P P P P K K K K K z ~ ~ $ . ( H x 8 ~ . . . . . . . ",
". @ ~ ) . ) ( ( . @ 0 | t . . P P K K P P P K K P P P P K K P K K K z ) U N > ) d ( ~ . . ; V D . @ ",
". + @ ] * & + $ R & t x 8 $ . P P K K P P P K K P P P P K P P K K K $ . o r : : ] $ @ . ; W F D . + ",
". . . u r . . * v 6 + i m c ) P P X X P P P X X P P P P P P P K z @ ( . . . N F F 5 . . r < j O . . ",
"+ ) . p - W E * v 6 # ~ [ # : P P P P P P P P P P P P P P K K K z 8 } . . . : Y F A r . g y q f . $ ",
"~ $ . . { 2 * * v 6 . . . a A O P P P P P P P P P P P P K . . + ~ J i . . . . : j < v . { A a . . @ ",
". @ ~ ) + ( ) . . . ) c + . . 6 v * P P P P P P P P K K K G . . . m i . @ ~ ) $ ' Z j . + ( & c x @ ",
". @ ~ ) ) + & / 7 @ + + # . . : e ^ > ` P P P ` ` K K ` @ 8 . . . 7 } . $ + . ) $ : { . $ + + @ 8 d ",
". @ ~ ) . . . d G H ( & . . . ] j ^ K K  ... .K K ` ` K K . . . . @ ( . . . . . . . . . . ) c @ . . ",
". ) $ . : r ^ ) [ + d @ # . . E : ` K  . .+. ...K ` ` K K ` . . . ) $ . . . + d . . . @ # . $ / . 7 ",
". > E a { y ^ . ) . $ ~ @ . . . . K `  . . . . .` K K ` ` K E > . . . E I . ( ' ) ) / ~ + . a a ) } ",
"> n v w { . . ) ~ $ + i 7 & ( @ K K  . . .+. . . .K K ` ` K K r . . E v 6 . . $ 7 L G ~ + * N O . . ",
"k j F 6 ^ & + @ ~ $ + i 7 / } } ` `  . . . . . . .` ` K K ` ` @.@ s D #.4 . ' + + | G $ ) > f @.A ; ",
"v F j a . ) ( ~ ~ $ + i 7 $ | K ` `  . . .+. . . .` ` K K ` ` K ~ r 2 ~ $ . ( @ $ | G . . . . 6 < ] ",
"j o ; . . . ) / / . $ 7 @ . ` ` K K ....+...+.....K K ` ` K K ` ` ^ ; / ' [ $ d @ @ b [ [ @ . : j 5 ",
"g > $ . & # . . . 5 3 + # . ` ` K K $.$.$.$.$.$.$.K K ` ` K K ` ` ) $ . + @ %.c c ) . @ 7 7 ) ; g > ",
") @ ~ ) d ( ) . . S y ^ . . K K `  .$.$.$.$.$. . .$.` K K ` ` K K @ ( . . . | ! ( ) . . &.! $ . . @ ",
"@ $ $ . & $ @ ' . r _ a s A K K  . .$. .$.$.$. . .$. .K K ` ` K K ) ) . . . @ + / . . . d @ @ + . ) ",
"~ $ . . . ) ( ( . O A a - F ` `  . .$. . .$.$. . .$. . .` K K ` . . . . . . . . . . . . . ) c @ . . ",
") ! G / 7 i 7 ( . . ) c ~ c ) P  . .$. . .$.$. . .$. . .$.P P P . S u . @ ~ ) . ^ y v . . . . $ ~ $ ",
". t 8 + 8 L ( + . # + + + + + # $. .$. . .$.$.$. .$. . .$. .$.. . s *.o : ] . ^ - V e . . & d c } + ",
". & ) ( 8 m $ . . + @ & . / @ $ $.$.$. . .$.$.. $.$. . .$.$.$.. ) ) . _ F v E : e k A ) . ) @ 7 | @ ",
". ' ( ) $ $ . . . & ) . d [ $ 5 2 $.$.$.$.$.. . . $.$.$.$.$.. d ( ( @ ^ D w a : n #.l ( d . ) ) + @ ",
". ' ( > > . . . * > > * & ( # : v =.=.=.=.. * E . ' =.=.=.=.) + ( ~ ~ . { _ a ; g $ ~ ( d . ) & . ' ",
". . . N { . . * v 6 5 F - & ( 4 j =.=.=.. E v n > . =.=.=.. ~ + . m i . . . . $ ~ ~ ~ . . ) c @ . . ",
". p r ; #.. . ^ e k - { 3 & ( $ $. .$.$.: *.] ^ + $. .$.$.. + ) . @ t . . . + + @ } T . . a R ] . d ",
"] n < $ l . ) 4 A F n 4 ) $ ( @ . O g > p = ( ~ -.$ ; y - * 5 ^ . . . 5 a . 1 + $ | G ) & * k D 3 $ ",
"F F j > . ) @ 1 a r r + c c ~ @ . > 4 @ ) a & @ i + . ^ s N F g . . E F : . & . $ | G c d . E o 2 3 ",
"e _ O & & & + + . : : + @ [ -.~ . . & + $ . $ 1 m % ) . 5 O e g . f s S 5 . @ @ + 8 m @ + $ . : F ] ",
"N ; . ( + . . . . @ ( & . $ ! } . > > . . ) ~ @ . [ [ . . . n { . = 2 . . . | ! ( # . . + 1 ) 5 ;.; ",
"; > . ) + ' & ) @ c ( & $ @ @ + . >.D ^ $ ( ~ @ . [ [ . # @ f . @ #.3 @ @ @ @ + $ ' @ . ) d @ + & . "};
