/* XPM */
static char * 0_xpm[] = {
"50 50 110 2",
"  	c None",
". 	c #79A230",
"+ 	c #779F2F",
"@ 	c #769E2F",
"# 	c #78A030",
"$ 	c #78A02F",
"% 	c #779E2E",
"& 	c #79A130",
"* 	c #7BA531",
"= 	c #82AC35",
"- 	c #80AA34",
"; 	c #7CA531",
"> 	c #7AA330",
", 	c #7AA231",
"' 	c #779E2F",
") 	c #78A130",
"! 	c #71972C",
"~ 	c #759C2E",
"{ 	c #7FA933",
"] 	c #7DA632",
"^ 	c #7BA431",
"/ 	c #78A12F",
"( 	c #769D2E",
"_ 	c #82AD34",
": 	c #7DA732",
"< 	c #86B137",
"[ 	c #769D2F",
"} 	c #72992D",
"| 	c #70962C",
"1 	c #769E2E",
"2 	c #85AF36",
"3 	c #7CA532",
"4 	c #7AA230",
"5 	c #7CA632",
"6 	c #7EA732",
"7 	c #749B2E",
"8 	c #739A2D",
"9 	c #77A030",
"0 	c #749A2E",
"a 	c #7AA331",
"b 	c #769F2F",
"c 	c #759D2E",
"d 	c #77A02F",
"e 	c #86B136",
"f 	c #7CA631",
"g 	c #80AA33",
"h 	c #71982D",
"i 	c #6F952C",
"j 	c #84AF35",
"k 	c #83AD35",
"l 	c #789F2F",
"m 	c #72982D",
"n 	c #83AE35",
"o 	c #7EA832",
"p 	c #7FA833",
"q 	c #7FA932",
"r 	c #81AB34",
"s 	c #7EA833",
"t 	c #749C2E",
"u 	c #86B036",
"v 	c #87B237",
"w 	c #85B035",
"x 	c #6F942B",
"y 	c #84AE35",
"z 	c #82AC34",
"A 	c #84AE34",
"B 	c #84AE36",
"C 	c #81AC34",
"D 	c #7AA431",
"E 	c #85B036",
"F 	c #6E932B",
"G 	c #73992D",
"H 	c #79A330",
"I 	c #71962C",
"J 	c #70972C",
"K 	c #70952C",
"L 	c #81AA33",
"M 	c #84AF36",
"N 	c #000000",
"O 	c #454545",
"P 	c #6D6D6D",
"Q 	c #FD3B93",
"R 	c #83AE34",
"S 	c #80AB33",
"T 	c #7EA733",
"U 	c #82AD35",
"V 	c #F8EFC8",
"W 	c #71972D",
"X 	c #7FAA33",
"Y 	c #80A933",
"Z 	c #80AB34",
"` 	c #FF4D70",
" .	c #00900E",
"..	c #12BD22",
"+.	c #81AB33",
"@.	c #FF6E2C",
"#.	c #161616",
"$.	c #FF4DB7",
"%.	c #FFFFFF",
"&.	c #990000",
"*.	c #FFC933",
"=.	c #7FA832",
"-.	c #759D2F",
";.	c #739A2E",
">.	c #749B2D",
",.	c #81AA34",
"'.	c #7BA331",
").	c #749A2D",
"!.	c #83AD34",
"~.	c #82AB34",
". + @ # $ $ @ % $ & * = - ; > . , ' ' & . . @ + . ) @ ! ~ . ~ + . + @ . . . { { ] > . ] ^ . / $ $ @ ",
". . . ( ~ ( ) ) ~ $ . > { _ * : < ^ . . . . . . . @ [ ) . . ~ + . } | . . . 1 ^ 2 3 . < { ) ( ~ ( $ ",
"@ @ @ ~ @ $ . ) ~ $ ) @ 4 5 > ^ 6 7 8 $ 9 + . ; = > ) . # @ $ & . ~ 0 . . . ( $ : a . 6 4 @ $ $ $ b ",
"~ ~ c c $ a . ) c $ $ [ + / . . & | | d + ( . ] e ; . & # ' & . . ' ( & . . ( ' . & & . ' c & > a + ",
"~ + ) ) f g ^ . ) ' ' $ ~ h + $ ( i | d + ( . f j ; & ( 3 k ( l . ) # ( $ . ) ) & ' ( . 7 m / ] n ^ ",
"+ ] { o p o > . + + + . @ 7 $ $ ~ 8 7 ) $ + . ^ q . + + ^ r + > o { s + + + . 9 t ~ ~ + ~ 7 + ; u r ",
"> n v w { . . ) ~ $ . . . . . $ ~ ) . . . . . . . [ [ . . . . o j e u . @ ~ ) [ x 8 ~ ~ + ) c 4 j e ",
"> n v 3 > . . ) ~ $ ; y 2 y ; . ) . ^ k s . . . . & ' | 7 . ( $ ^ z A . - B a [ x 8 ~ ) 8 m d . * _ ",
"> C 2 D . ) d + ( d ^ n u E s ^ . ^ ] n : d ) & . & @ F G ) ( + . { C ^ r B H [ I 7 ( . 7 h / . > { ",
". ^ * . d ~ ! h ) ' + ^ - w 2 r . k n ] ~ J ( ' . @ 7 F h ( ) & . a ; _ ^ # [ @ d ) ) . 1 ~ & . . # ",
". t 8 ) ) [ K K + + + + > q y L + M M 4 m i + + + + ' 7 t ~ + $ . . . o . + + + + ) . . ) + + + + + ",
") ! F / . d | i ~ $ ) c + a z { ~ B B # ! N N N N N N N N ~ ~ + . . . . . . . $ c ) . . . ) c ~ ~ $ ",
"~ $ . ( + ) ( ( . . ) c ~ ~ ~ ~ ~ ) . N N O O P P P P P O N . 7 N Q ( . @ ~ ) : R * . . r y ^ . . @ ",
"@ $ $ 1 + $ & 4 ] a ) @ @ [ ~ c @ ) N P O N P P P P P P P O N N Q N Q . + @ . ; S o ] $ 6 - > . . + ",
") @ ~ ) + l r j < : . . . ) ( @ . N O P P O N P P P P P P O P Q N Q . . . . . . ^ y < ~ ( ' & . . . ",
"@ } I [ + & 5 o E n - > T r a ) . N P P P O N P P P P P P P P Q Q N + . + @ . . H ] T $ $ d @ @ @ ) ",
"~ | F ~ d . . a C w j : - U * . / N P P P N N N N N N N N P P P N + @ . @ ~ ) . ) . . / d @ ~ c @ ) ",
"~ | F / . . . . . S w v - . . $ ~ N P N N V V V V V V V V N N P N . . . @ ~ ) $ c ) . ~ W K 7 @ . . ",
"@ m | + ) . $ $ . ] g z T . $ + N O P N V V V V V V V V V V N P O N $ $ + @ d @ 8 @ $ @ 7 G ( + . . ",
". @ ~ ~ + ) ( ( . @ ( & . & ( @ N P N N V N V V V V V V N V N N P N ~ ~ $ . ( G x 8 ~ . . . . . . . ",
". @ ~ ) . ) ( ( . @ 0 | t . . N O P N V V V V V V V V V V V V N P O N ) X R > ) d ( ~ . . ; M C . @ ",
". + @ ] * & + $ T & t x 8 $ . N P P N V N N V V V V V V N N V N P P N . o r : : ] $ @ . ; Y E C . + ",
". . . u r . . * v 6 + i m c ) . N P N V N N V V V V V V N N V N P N ( . . . R E E 5 . . r < j S . . ",
"+ ) . p - Y D * v 6 # ~ [ # : : N P N V Q Q V V V V V V Q Q V N P N } . . . : Z E z r . g y q f . $ ",
"~ $ . . { 2 * * v 6 . . . a z S N P N V V V V V V V V V V V V N P N i . . . . : j < v . { z a . . @ ",
". @ ~ ) + ( ) . . . ) c + . . N P P N `  . ............. . .` N P N i . @ ~ ) $ ' +.j . + ( & c x @ ",
". @ ~ ) ) + & / 7 @ + + # . N @.P P P N .. . . . . . . . ...N N P P N . $ + . ) $ : { . $ + + @ 8 d ",
". @ ~ ) . . . d F G ( & . . N @.P @.N @.#.$.$.%.V %.$.$.#.#.#.N P P @.N . . . . . . . . . ) c @ . . ",
". ) $ . : r ^ ) [ + d @ # . N @.P @.N @.#.$.$.$.%.$.$.$.#.#.N @.P P @.N . . + d . . . @ # . $ / . 7 ",
". > D a { y ^ . ) . $ ~ @ N @.@.@.N #.#.#.%.%.%.&.&.%.%.#.#.@.N @.P @.N H . ( ' ) ) / ~ + . a a ) } ",
"> n v w { . . ) ~ $ + i 7 & N @.N #.#.#.#.*.*.*.*.*.*.*.#.#.@.N @.P @.N 6 . . $ 7 K F ~ + * R S . . ",
"k j E 6 ^ & + @ ~ $ + i 7 / N @.N #.#.#.#.&.&.&.%.%.&.&.#.#.#.@.N @.@.@.N . ' + + | F $ ) > f =.z ; ",
"v E j a . ) ( ~ ~ $ + i 7 $ | N ~ N N N #.$.%.$.$.$.$.$.#.N N N #.#.@.N $ . ( @ $ | F . . . . 6 < ] ",
"j o ; . . . ) / / . $ 7 @ . + + / ' @ N #.$.$.%.$.$.$.$.#.N #.N N #.@.N ' [ $ d @ @ b [ [ @ . : j 5 ",
"g > $ . & # . . . 5 3 + # . # ) . + N #.#.$.$.$.%.$.$.$.#.#.N #.#.@.N . + @ -.c c ) . @ 7 7 ) ; g > ",
") @ ~ ) d ( ) . . U y ^ . . 1 @ . N #.#.#.$.$.$.N $.$.$.#.#.#.N N N ( . . . | ! ( ) . . ;.! $ . . @ ",
"@ $ $ . & $ @ ' . r _ a s z a + @ N N N #.V V N + N V V #.N N N . ) ) . . . @ + / . . . d @ @ + . ) ",
"~ $ . . . ) ( ( . S z a - E 5 $ ~ ) . . N %.%.N ( N %.%.N . ~ + . . . . . . . . . . . . . ) c @ . . ",
") ! F / 7 i 7 ( . . ) c ~ c ) . . | i 7 + N N . . . N N . . . . . U u . @ ~ ) . ^ y v . . . . $ ~ $ ",
". t 8 + 8 K ( + . # + + + + + # . 7 >.@ + d . . . d ' 7 c + . . . s ,.o : ] . ^ - M e . . & d c } + ",
". & ) ( 8 m $ . . + @ & . / @ $ * . . . + 1 . . . [ 7 | } ( . . ) ) . _ E v D : e k z ) . ) @ 7 | @ ",
". ' ( ) $ $ . . . & ) . d [ $ 5 2 ^ . . & ) . . . [ c d $ ) . d ( ( @ ^ C w a : n '.l ( d . ) ) + @ ",
". ' ( > > . . . * > > * & ( # : v : ^ . . . * D . ' ' . . . ) + ( ~ ~ . { _ a ; g $ ~ ( d . ) & . ' ",
". . . R { . . * v 6 5 E - & ( 4 j v 2 * . D v n > . . . . . ~ + . m i . . . . $ ~ ~ ~ . . ) c @ . . ",
". p r ; '.. . ^ e k - { 3 & ( $ o M y ^ : ,.] ^ + & ^ r : . + ) . @ t . . . + + @ } W . . a T ] . d ",
"] n < $ l . ) 4 z E n 4 ) $ ( @ . S g > p = ( ~ ).$ ; y - * 5 ^ . . . 5 a . 1 + $ | F ) & * k C 3 $ ",
"E E j > . ) @ 1 a r r + c c ~ @ . > 4 @ ) a & @ i + . ^ s R E g . . D E : . & . $ | F c d . D o 2 3 ",
"e _ S & & & + + . : : + @ [ ).~ . . & + $ . $ 1 m % ) . 5 S e g . f s U 5 . @ @ + 8 m @ + $ . : E ] ",
"R ; . ( + . . . . @ ( & . $ ! } . > > . . ) ~ @ . [ [ . . . n { . = 2 . . . | ! ( # . . + 1 ) 5 !.; ",
"; > . ) + ' & ) @ c ( & $ @ @ + . ~.C ^ $ ( ~ @ . [ [ . # @ f . @ '.3 @ @ @ @ + $ ' @ . ) d @ + & . "};
