/* XPM */
static char * 0_xpm[] = {
"50 50 132 2",
"  	c None",
". 	c #79A230",
"+ 	c #779F2F",
"@ 	c #769E2F",
"# 	c #78A030",
"$ 	c #78A02F",
"% 	c #779E2E",
"& 	c #79A130",
"* 	c #7BA531",
"= 	c #82AC35",
"- 	c #80AA34",
"; 	c #7CA531",
"> 	c #7AA330",
", 	c #7AA231",
"' 	c #779E2F",
") 	c #78A130",
"! 	c #71972C",
"~ 	c #759C2E",
"{ 	c #7FA933",
"] 	c #7DA632",
"^ 	c #7BA431",
"/ 	c #78A12F",
"( 	c #769D2E",
"_ 	c #82AD34",
": 	c #7DA732",
"< 	c #86B137",
"[ 	c #769D2F",
"} 	c #72992D",
"| 	c #70962C",
"1 	c #769E2E",
"2 	c #85AF36",
"3 	c #7CA532",
"4 	c #7AA230",
"5 	c #7CA632",
"6 	c #7EA732",
"7 	c #749B2E",
"8 	c #739A2D",
"9 	c #77A030",
"0 	c #749A2E",
"a 	c #7AA331",
"b 	c #769F2F",
"c 	c #759D2E",
"d 	c #77A02F",
"e 	c #86B136",
"f 	c #7CA631",
"g 	c #80AA33",
"h 	c #71982D",
"i 	c #6F952C",
"j 	c #84AF35",
"k 	c #83AD35",
"l 	c #789F2F",
"m 	c #72982D",
"n 	c #83AE35",
"o 	c #7EA832",
"p 	c #7FA833",
"q 	c #EFA73D",
"r 	c #F0A73D",
"s 	c #F0A83D",
"t 	c #81AB34",
"u 	c #7EA833",
"v 	c #749C2E",
"w 	c #86B036",
"x 	c #87B237",
"y 	c #85B035",
"z 	c #E5BE40",
"A 	c #E5BD40",
"B 	c #6F942B",
"C 	c #84AE35",
"D 	c #E6C041",
"E 	c #E6BF41",
"F 	c #E4BB3F",
"G 	c #E5BC40",
"H 	c #82AC34",
"I 	c #84AE34",
"J 	c #84AE36",
"K 	c #81AC34",
"L 	c #7AA431",
"M 	c #85B036",
"N 	c #F0E1A4",
"O 	c #E6BE40",
"P 	c #E6BF40",
"Q 	c #79A330",
"R 	c #71962C",
"S 	c #EFE1A4",
"T 	c #E4BC3F",
"U 	c #EFAF44",
"V 	c #EFAF45",
"W 	c #EFAE44",
"X 	c #EFAD44",
"Y 	c #70952C",
"Z 	c #7FA932",
"` 	c #F0A93D",
" .	c #F0E2A4",
"..	c #EFC141",
"+.	c #6E932B",
"@.	c #EDC75C",
"#.	c #EFC041",
"$.	c #EFC241",
"%.	c #EFA63D",
"&.	c #EFE0A4",
"*.	c #EDC85C",
"=.	c #83AE34",
"-.	c #EFA53C",
";.	c #80AB33",
">.	c #E10013",
",.	c #F0C241",
"'.	c #F0C342",
").	c #F0C242",
"!.	c #7EA733",
"~.	c #F0C442",
"{.	c #71972D",
"].	c #73992D",
"^.	c #84AF36",
"/.	c #EFA63C",
"(.	c #80A933",
"_.	c #80AB34",
":.	c #E5BB3F",
"<.	c #E7C141",
"[.	c #81AB33",
"}.	c #E7C041",
"|.	c #F0AA3E",
"1.	c #79A12F",
"2.	c #7FA832",
"3.	c #7BA331",
"4.	c #759D2F",
"5.	c #82AD35",
"6.	c #739A2E",
"7.	c #749B2D",
"8.	c #81AA34",
"9.	c #749A2D",
"0.	c #83AD34",
"a.	c #82AB34",
". + @ # $ $ @ % $ & * = - ; > . , ' ' & . . @ + . ) @ ! ~ . ~ + . + @ . . . { { ] > . ] ^ . / $ $ @ ",
". . . ( ~ ( ) ) ~ $ . > { _ * : < ^ . . . . . . . @ [ ) . . ~ + . } | . . . 1 ^ 2 3 . < { ) ( ~ ( $ ",
"@ @ @ ~ @ $ . ) ~ $ ) @ 4 5 > ^ 6 7 8 $ 9 + . ; = > ) . # @ $ & . ~ 0 . . . ( $ : a . 6 4 @ $ $ $ b ",
"~ ~ c c $ a . ) c $ $ [ + / . . & | | d + ( . ] e ; . & # ' & . . ' ( & . . ( ' . & & . ' c & > a + ",
"~ + ) ) f g ^ . ) ' ' $ ~ h + $ ( i | d + ( . f j ; & ( 3 k ( l . ) # ( $ . ) ) & ' ( . 7 m / ] n ^ ",
"+ ] { o p o > . + + + . @ 7 $ $ ~ 8 7 ) $ q q r s q q q r t + > o { u + + + . 9 v ~ ~ + ~ 7 + ; w t ",
"> n x y { . . ) ~ $ . . . . . $ ~ ) . q q z z z z A A z z q q o j e w . @ ~ ) [ B 8 ~ ~ + ) c 4 j e ",
"> n x 3 > . . ) ~ $ ; C 2 C ; . ) q r D E z z z z A A F G z A q r H I . - J a [ B 8 ~ ) 8 m d . * _ ",
"> K 2 L . ) d + ( d ^ n w M u ^ q N O D P A A A z A A F G A A A z s K ^ t J Q [ R 7 ( . 7 h / . > { ",
". ^ * . d ~ ! h ) ' + ^ - y 2 s S D D O A T U V V V W X G A A A z z s _ ^ # [ @ d ) ) . 1 ~ & . . # ",
". v 8 ) ) [ Y Y + + + + > Z `  .A D D z W W ............U U A A z z z s . + + + + ) . . ) + + + + + ",
") ! +./ . d | i ~ $ ) c + a `  .A D D V @.#.$.......$.$.....%.A z z z q . . . $ c ) . . . ) c ~ ~ $ ",
"~ $ . ( + ) ( ( . . ) c ~ %.&.A A ..V *.........#.........$.$.%.F G A z %.~ ) : =.* . . t C ^ . . @ ",
"@ $ $ 1 + $ & 4 ] a ) @ @ %.&.A A V *.$.........#.........$.....-.G A z q @ . ; ;.o ] $ 6 - > . . + ",
") @ ~ ) + l t j < : . . q S A A z V *.$.$...........$.$.$.$...#.-.A z z z q . . ^ C < ~ ( ' & . . . ",
"@ } R [ + & 5 o M n - > s  .z A V *...........>.>.>.,.'.).$.......%.A z A %.. . Q ] !.$ $ d @ @ @ ) ",
"~ | +.~ d . . a K y j : s D z z V @.........>...$.$.,.'.'.,.$.$.$.q A z A %.) . ) . . / d @ ~ c @ ) ",
"~ | +./ . . . . . ;.y x s S z A U ..$.$.$...>...$.$.$.$.).~.$.$.$.q z z A %.) $ c ) . ~ {.Y 7 @ . . ",
"@ m | + ) . $ $ . ] g H s z A A V ..,.,.,.$.>...,.$...$.).~.$.,.,.r A A A %.d @ 8 @ $ @ 7 ].( + . . ",
". @ ~ ~ + ) ( ( . @ ( & q A A A V $.,.'.,.$.>.,.~.....$.,.'.$.).~.r A A A q ( ].B 8 ~ . . . . . . . ",
". @ ~ ) . ) ( ( . @ 0 | %.z z z V $.$.,.'.'...>.>.>...$.$.,.....,.q A A E ` > ) d ( ~ . . ; ^.K . @ ",
". + @ ] * & + $ !.& v B /.A z z z q ..$.).'...$.'.........$.....q A A z P s : : ] $ @ . ; (.M K . + ",
". . . w t . . * x 6 + i m %.A z z %.....$.$.$.$.$.$.......$.....q A A z q . =.M M 5 . . t < j ;.. . ",
"+ ) . p - (.L * x 6 # ~ [ q P P z A q $.....$.............$...q A G G z q . : _.M H t . g C Z f . $ ",
"~ $ . . { 2 * * x 6 . . . a ` E z z z q ....$.........$.$.$.q A A :.F q . . . : j < x . { H a . . @ ",
". @ ~ ) + ( ) . . . ) c + . q P <.z z z q q ........$.$.%.-.z z z G F q @ ~ ) $ ' [.j . + ( & c B @ ",
". @ ~ ) ) + & / 7 @ + + # . . s <.z z E O z q %./.%.q q A G z z z G /.. $ + . ) $ : { . $ + + @ 8 d ",
". @ ~ ) . . . d +.].( & . . . ] ` z z }.E z z A F G A z z z z z z %.( . . . . . . . . . . ) c @ . . ",
". ) $ . : t ^ ) [ + d @ # . . L : q q O z z A G F A A z P D z q q ) $ . . . + d . . . @ # . $ / . 7 ",
". > L a { C ^ . ) . $ ~ @ . . . . @ ( q q A A G F A z A E |.r > . . . L Q . ( ' ) ) / ~ + . a a ) } ",
"> n x y { . . ) ~ $ + i 7 & ( @ . . ) ( + q q q q q q %.r j x t . . L x 6 . . $ 7 Y +.~ + * =.;.. . ",
"k j M 6 ^ & + @ ~ $ + i 7 / } } @ ) . $ ) . . ) ' & / ~ 1.] M 2.@ u K 3.4 . ' + + | +.$ ) > f 2.H ; ",
"x M j a . ) ( ~ ~ $ + i 7 $ | | ~ ) . . . . . $ ~ / / ~ + . j ] ~ t 2 ~ $ . ( @ $ | +.. . . . 6 < ] ",
"j o ; . . . ) / / . $ 7 @ . + + / ' @ & { k . . / . . / + [ $ # / ^ ; / ' [ $ d @ @ b [ [ @ . : j 5 ",
"g > $ . & # . . . 5 3 + # . # ) . + + & g M !.5 . . > !.3.@ @ d . ) $ . + @ 4.c c ) . @ 7 7 ) ; g > ",
") @ ~ ) d ( ) . . 5.C ^ . . 1 @ . . . . { j x n Q Q ] < - . . . . @ ( . . . | ! ( ) . . 6.! $ . . @ ",
"@ $ $ . & $ @ ' . t _ a u H a + @ ) . . ^ : M t + - t , 4 . @ $ . ) ) . . . @ + / . . . d @ @ + . ) ",
"~ $ . . . ) ( ( . ;.H a - M 5 $ ~ ) . . . a j g ( k k ~ + . ~ + . . . . . . . . . . . . . ) c @ . . ",
") ! +./ 7 i 7 ( . . ) c ~ c ) . . | i 7 + . . . . . . . . . . . . 5.w . @ ~ ) . ^ C x . . . . $ ~ $ ",
". v 8 + 8 Y ( + . # + + + + + # . 7 7.@ + d . . . d ' 7 c + . . . u 8.o : ] . ^ - ^.e . . & d c } + ",
". & ) ( 8 m $ . . + @ & . / @ $ * . . . + 1 . . . [ 7 | } ( . . ) ) . _ M x L : e k H ) . ) @ 7 | @ ",
". ' ( ) $ $ . . . & ) . d [ $ 5 2 ^ . . & ) . . . [ c d $ ) . d ( ( @ ^ K y a : n 3.l ( d . ) ) + @ ",
". ' ( > > . . . * > > * & ( # : x : ^ . . . * L . ' ' . . . ) + ( ~ ~ . { _ a ; g $ ~ ( d . ) & . ' ",
". . . =.{ . . * x 6 5 M - & ( 4 j x 2 * . L x n > . . . . . ~ + . m i . . . . $ ~ ~ ~ . . ) c @ . . ",
". p t ; 3.. . ^ e k - { 3 & ( $ o ^.C ^ : 8.] ^ + & ^ t : . + ) . @ v . . . + + @ } {.. . a !.] . d ",
"] n < $ l . ) 4 H M n 4 ) $ ( @ . ;.g > p = ( ~ 9.$ ; C - * 5 ^ . . . 5 a . 1 + $ | +.) & * k K 3 $ ",
"M M j > . ) @ 1 a t t + c c ~ @ . > 4 @ ) a & @ i + . ^ u =.M g . . L M : . & . $ | +.c d . L o 2 3 ",
"e _ ;.& & & + + . : : + @ [ 9.~ . . & + $ . $ 1 m % ) . 5 ;.e g . f u 5.5 . @ @ + 8 m @ + $ . : M ] ",
"=.; . ( + . . . . @ ( & . $ ! } . > > . . ) ~ @ . [ [ . . . n { . = 2 . . . | ! ( # . . + 1 ) 5 0.; ",
"; > . ) + ' & ) @ c ( & $ @ @ + . a.K ^ $ ( ~ @ . [ [ . # @ f . @ 3.3 @ @ @ @ + $ ' @ . ) d @ + & . "};
