/* XPM */
static char * 1_xpm[] = {
"50 50 132 2",
"  	c None",
". 	c #79A230",
"+ 	c #779F2F",
"@ 	c #769E2F",
"# 	c #78A030",
"$ 	c #78A02F",
"% 	c #779E2E",
"& 	c #79A130",
"* 	c #7BA531",
"= 	c #82AC35",
"- 	c #80AA34",
"; 	c #7CA531",
"> 	c #7AA330",
", 	c #7AA231",
"' 	c #779E2F",
") 	c #78A130",
"! 	c #71972C",
"~ 	c #759C2E",
"{ 	c #7FA933",
"] 	c #7DA632",
"^ 	c #7BA431",
"/ 	c #78A12F",
"( 	c #769D2E",
"_ 	c #82AD34",
": 	c #7DA732",
"< 	c #86B137",
"[ 	c #769D2F",
"} 	c #72992D",
"| 	c #70962C",
"1 	c #769E2E",
"2 	c #85AF36",
"3 	c #7CA532",
"4 	c #7AA230",
"5 	c #7CA632",
"6 	c #7EA732",
"7 	c #749B2E",
"8 	c #739A2D",
"9 	c #77A030",
"0 	c #749A2E",
"a 	c #7AA331",
"b 	c #769F2F",
"c 	c #759D2E",
"d 	c #77A02F",
"e 	c #86B136",
"f 	c #7CA631",
"g 	c #80AA33",
"h 	c #71982D",
"i 	c #6F952C",
"j 	c #84AF35",
"k 	c #83AD35",
"l 	c #789F2F",
"m 	c #72982D",
"n 	c #83AE35",
"o 	c #7EA832",
"p 	c #7FA833",
"q 	c #7FA932",
"r 	c #81AB34",
"s 	c #7EA833",
"t 	c #749C2E",
"u 	c #86B036",
"v 	c #87B237",
"w 	c #85B035",
"x 	c #6F942B",
"y 	c #84AE35",
"z 	c #82AC34",
"A 	c #84AE34",
"B 	c #84AE36",
"C 	c #81AC34",
"D 	c #7AA431",
"E 	c #85B036",
"F 	c #EFA73D",
"G 	c #EFA63D",
"H 	c #EFA53C",
"I 	c #EFA63C",
"J 	c #79A330",
"K 	c #71962C",
"L 	c #F0A83D",
"M 	c #E4BC3F",
"N 	c #E5BD40",
"O 	c #E5BE40",
"P 	c #E5BC40",
"Q 	c #E4BB3F",
"R 	c #70952C",
"S 	c #81AA33",
"T 	c #F0A93E",
"U 	c #6E932B",
"V 	c #F0E2A4",
"W 	c #E6C041",
"X 	c #E5BC3F",
"Y 	c #EFE0A4",
"Z 	c #EFAF44",
"` 	c #EFAE44",
" .	c #EFAF45",
"..	c #83AE34",
"+.	c #EFE1A4",
"@.	c #EFC141",
"#.	c #EFC041",
"$.	c #80AB33",
"%.	c #EDC85C",
"&.	c #EFC241",
"*.	c #7EA733",
"=.	c #F0E1A4",
"-.	c #F0C241",
";.	c #F0C342",
">.	c #F0C242",
",.	c #F0A93D",
"'.	c #EDC75C",
").	c #F0C442",
"!.	c #71972D",
"~.	c #E10013",
"{.	c #F0A73D",
"].	c #73992D",
"^.	c #E6BF41",
"/.	c #84AF36",
"(.	c #E6BF40",
"_.	c #80A933",
":.	c #80AB34",
"<.	c #E5BB3F",
"[.	c #E7C141",
"}.	c #81AB33",
"|.	c #E6BE40",
"1.	c #E7C041",
"2.	c #7BA331",
"3.	c #7FA832",
"4.	c #759D2F",
"5.	c #82AD35",
"6.	c #739A2E",
"7.	c #749B2D",
"8.	c #81AA34",
"9.	c #749A2D",
"0.	c #83AD34",
"a.	c #82AB34",
". + @ # $ $ @ % $ & * = - ; > . , ' ' & . . @ + . ) @ ! ~ . ~ + . + @ . . . { { ] > . ] ^ . / $ $ @ ",
". . . ( ~ ( ) ) ~ $ . > { _ * : < ^ . . . . . . . @ [ ) . . ~ + . } | . . . 1 ^ 2 3 . < { ) ( ~ ( $ ",
"@ @ @ ~ @ $ . ) ~ $ ) @ 4 5 > ^ 6 7 8 $ 9 + . ; = > ) . # @ $ & . ~ 0 . . . ( $ : a . 6 4 @ $ $ $ b ",
"~ ~ c c $ a . ) c $ $ [ + / . . & | | d + ( . ] e ; . & # ' & . . ' ( & . . ( ' . & & . ' c & > a + ",
"~ + ) ) f g ^ . ) ' ' $ ~ h + $ ( i | d + ( . f j ; & ( 3 k ( l . ) # ( $ . ) ) & ' ( . 7 m / ] n ^ ",
"+ ] { o p o > . + + + . @ 7 $ $ ~ 8 7 ) $ + . ^ q . + + ^ r + > o { s + + + . 9 t ~ ~ + ~ 7 + ; u r ",
"> n v w { . . ) ~ $ . . . . . $ ~ ) . . . . . . . [ [ . . . . o j e u . @ ~ ) [ x 8 ~ ~ + ) c 4 j e ",
"> n v 3 > . . ) ~ $ ; y 2 y ; . ) . ^ k s . . . . & ' | 7 . ( $ ^ z A . - B a [ x 8 ~ ) 8 m d . * _ ",
"> C 2 D . ) d + ( d ^ n u E s ^ . ^ ] n : F F F F F G H I ) ( + . { C ^ r B J [ K 7 ( . 7 h / . > { ",
". ^ * . d ~ ! h ) ' + ^ - w 2 r . k n L G M N N O N P Q P G F & . a ; _ ^ # [ @ d ) ) . 1 ~ & . . # ",
". t 8 ) ) [ R R + + + + > q y S + T T O P Q N N N N N P N N N F F . . o . + + + + ) . . ) + + + + + ",
") ! U / . d | i ~ $ ) c + a z { G V W N X Q O N N N O O N N N N O F . . . . . $ c ) . . . ) c ~ ~ $ ",
"~ $ . ( + ) ( ( . . ) c ~ ~ ~ G Y N O O N N Z ` `  . .Z N O O P Q P G . @ ~ ) : ..* . . r y ^ . . @ ",
"@ $ $ 1 + $ & 4 ] a ) @ @ [ G +.N N O O  .Z @.@.#.@.@.@. . .N P Q P N F + @ . ; $.o ] $ 6 - > . . + ",
") @ ~ ) + l r j < : . . . ) G +.O O O  .%.@.@.@.@.@.&.&.&.&.G P Q N O F . . . . ^ y < ~ ( ' & . . . ",
"@ } K [ + & 5 o E n - > *.L =.N O @. .%.@.@.@.@.@.&.-.;.>.&.@.F N N N O F @ . . J ] *.$ $ d @ @ @ ) ",
"~ | U ~ d . . a C w j : - ,.=.O N  .'.@.@.@.@.@.&.&.-.;.;.-.&.&.F N N O G ~ ) . ) . . / d @ ~ c @ ) ",
"~ | U / . . . . . $.w v L +.O N N  .%.&.&.@.@.@.&.&.&.&.>.).&.&.F O O O N G ) $ c ) . ~ !.R 7 @ . . ",
"@ m | + ) . $ $ . ] g z L +.N N  .%.-.-.-.&.@.~.~.~.@.&.>.).&.-.-.{.N N N G d @ 8 @ $ @ 7 ].( + . . ",
". @ ~ ~ + ) ( ( . @ ( & F N N N  .%.-.;.-.&.~.-.).@.@.&.-.;.&.>.).{.N N N F ( ].x 8 ~ . . . . . . . ",
". @ ~ ) . ) ( ( . @ 0 | G +.O O  .&.&.-.;.;.~.-.;.@.@.&.&.-.@.@.-.F N N ^.,.> ) d ( ~ . . ; /.C . @ ",
". + @ ] * & + $ *.& t x I N O O  .@.@.&.>.;.~.&.;.@.@.@.@.&.@.@.&.F N O (.L : : ] $ @ . ; _.E C . + ",
". . . u r . . * v 6 + i I N N O  .@.@.@.&.&.~.&.&.&.@.@.@.&.@.@.&.G N O O F ..E E 5 . . r < j $.. . ",
"+ ) . p - _.D * v 6 # ~ G N (.(. .@.@.&.@.@.&.~.~.~.@.@.@.&.@.@.@.I P O O F : :.E z r . g y q f . $ ",
"~ $ . . { 2 * * v 6 . . F O W ^.O F &.&.@.@.&.@.@.@.@.&.&.&.&.@.G <.Q O O F . : j < v . { z a . . @ ",
". @ ~ ) + ( ) . . . ) c + F O (.[.L &.&.&.@.@.@.@.@.&.&.@.#.&.&.F P Q O G ~ ) $ ' }.j . + ( & c x @ ",
". @ ~ ) ) + & / 7 @ + + # F O (.[.O {.>.-.&.@.@.#.@.@.&.@.@.&.F O P P O F + . ) $ : { . $ + + @ 8 d ",
". @ ~ ) . . . d U ].( & . . F |.W O O T >.&.&.@.#.@.@.&.&.&.F O O N N F . . . . . . . . . ) c @ . . ",
". ) $ . : r ^ ) [ + d @ # . F O (.N N |.{.F @.@.#.@.@.&.L ,.O O O N N F . . + d . . . @ # . $ / . 7 ",
". > D a { y ^ . ) . $ ~ @ . . F O N N N O N G I H F F F ^.[.O O O O F D J . ( ' ) ) / ~ + . a a ) } ",
"> n v w { . . ) ~ $ + i 7 & ( @ F O N N N O O O O O N N |.W [.^.O F D v 6 . . $ 7 R U ~ + * ..$.. . ",
"k j E 6 ^ & + @ ~ $ + i 7 / } } @ F F N N O O N N N N N N |.1.L G s C 2.4 . ' + + | U $ ) > f 3.z ; ",
"v E j a . ) ( ~ ~ $ + i 7 $ | | ~ ) . F F O O N N N N N N F ,.] ~ r 2 ~ $ . ( @ $ | U . . . . 6 < ] ",
"j o ; . . . ) / / . $ 7 @ . + + / ' @ & { ,.F F F F F F F [ $ # / ^ ; / ' [ $ d @ @ b [ [ @ . : j 5 ",
"g > $ . & # . . . 5 3 + # . # ) . + + & g E *.5 . . > *.2.@ @ d . ) $ . + @ 4.c c ) . @ 7 7 ) ; g > ",
") @ ~ ) d ( ) . . 5.y ^ . . 1 @ . . . . { j v n J J ] < - . . . . @ ( . . . | ! ( ) . . 6.! $ . . @ ",
"@ $ $ . & $ @ ' . r _ a s z a + @ ) . . ^ : E r + - r , 4 . @ $ . ) ) . . . @ + / . . . d @ @ + . ) ",
"~ $ . . . ) ( ( . $.z a - E 5 $ ~ ) . . . a j g ( k k ~ + . ~ + . . . . . . . . . . . . . ) c @ . . ",
") ! U / 7 i 7 ( . . ) c ~ c ) . . | i 7 + . . . . . . . . . . . . 5.u . @ ~ ) . ^ y v . . . . $ ~ $ ",
". t 8 + 8 R ( + . # + + + + + # . 7 7.@ + d . . . d ' 7 c + . . . s 8.o : ] . ^ - /.e . . & d c } + ",
". & ) ( 8 m $ . . + @ & . / @ $ * . . . + 1 . . . [ 7 | } ( . . ) ) . _ E v D : e k z ) . ) @ 7 | @ ",
". ' ( ) $ $ . . . & ) . d [ $ 5 2 ^ . . & ) . . . [ c d $ ) . d ( ( @ ^ C w a : n 2.l ( d . ) ) + @ ",
". ' ( > > . . . * > > * & ( # : v : ^ . . . * D . ' ' . . . ) + ( ~ ~ . { _ a ; g $ ~ ( d . ) & . ' ",
". . . ..{ . . * v 6 5 E - & ( 4 j v 2 * . D v n > . . . . . ~ + . m i . . . . $ ~ ~ ~ . . ) c @ . . ",
". p r ; 2.. . ^ e k - { 3 & ( $ o /.y ^ : 8.] ^ + & ^ r : . + ) . @ t . . . + + @ } !.. . a *.] . d ",
"] n < $ l . ) 4 z E n 4 ) $ ( @ . $.g > p = ( ~ 9.$ ; y - * 5 ^ . . . 5 a . 1 + $ | U ) & * k C 3 $ ",
"E E j > . ) @ 1 a r r + c c ~ @ . > 4 @ ) a & @ i + . ^ s ..E g . . D E : . & . $ | U c d . D o 2 3 ",
"e _ $.& & & + + . : : + @ [ 9.~ . . & + $ . $ 1 m % ) . 5 $.e g . f s 5.5 . @ @ + 8 m @ + $ . : E ] ",
"..; . ( + . . . . @ ( & . $ ! } . > > . . ) ~ @ . [ [ . . . n { . = 2 . . . | ! ( # . . + 1 ) 5 0.; ",
"; > . ) + ' & ) @ c ( & $ @ @ + . a.C ^ $ ( ~ @ . [ [ . # @ f . @ 2.3 @ @ @ @ + $ ' @ . ) d @ + & . "};
