/* XPM */
static char * 3_xpm[] = {
"50 50 136 2",
"  	c None",
". 	c #79A230",
"+ 	c #779F2F",
"@ 	c #769E2F",
"# 	c #78A030",
"$ 	c #78A02F",
"% 	c #779E2E",
"& 	c #79A130",
"* 	c #7BA531",
"= 	c #82AC35",
"- 	c #80AA34",
"; 	c #7CA531",
"> 	c #7AA330",
", 	c #7AA231",
"' 	c #779E2F",
") 	c #78A130",
"! 	c #71972C",
"~ 	c #759C2E",
"{ 	c #7FA933",
"] 	c #7DA632",
"^ 	c #7BA431",
"/ 	c #78A12F",
"( 	c #769D2E",
"_ 	c #82AD34",
": 	c #7DA732",
"< 	c #86B137",
"[ 	c #769D2F",
"} 	c #72992D",
"| 	c #70962C",
"1 	c #769E2E",
"2 	c #85AF36",
"3 	c #7CA532",
"4 	c #7AA230",
"5 	c #7CA632",
"6 	c #7EA732",
"7 	c #749B2E",
"8 	c #739A2D",
"9 	c #77A030",
"0 	c #749A2E",
"a 	c #7AA331",
"b 	c #769F2F",
"c 	c #759D2E",
"d 	c #77A02F",
"e 	c #86B136",
"f 	c #7CA631",
"g 	c #80AA33",
"h 	c #71982D",
"i 	c #6F952C",
"j 	c #84AF35",
"k 	c #83AD35",
"l 	c #789F2F",
"m 	c #72982D",
"n 	c #83AE35",
"o 	c #7EA832",
"p 	c #7FA833",
"q 	c #7FA932",
"r 	c #81AB34",
"s 	c #7EA833",
"t 	c #749C2E",
"u 	c #86B036",
"v 	c #87B237",
"w 	c #85B035",
"x 	c #6F942B",
"y 	c #84AE35",
"z 	c #82AC34",
"A 	c #84AE34",
"B 	c #84AE36",
"C 	c #81AC34",
"D 	c #7AA431",
"E 	c #85B036",
"F 	c #6E932B",
"G 	c #73992D",
"H 	c #79A330",
"I 	c #71962C",
"J 	c #70972C",
"K 	c #70952C",
"L 	c #81AA33",
"M 	c #84AF36",
"N 	c #6E942B",
"O 	c #83AE34",
"P 	c #80AB33",
"Q 	c #7EA733",
"R 	c #EFA63D",
"S 	c #EFA73D",
"T 	c #F0A73D",
"U 	c #F0A93D",
"V 	c #F0A83D",
"W 	c #82AD35",
"X 	c #E5BD40",
"Y 	c #E5BE40",
"Z 	c #E6C041",
"` 	c #E6BF41",
" .	c #E7C141",
"..	c #71972D",
"+.	c #EFE1A4",
"@.	c #E6BE40",
"#.	c #E6BF40",
"$.	c #EFAF45",
"%.	c #F0B045",
"&.	c #F0B246",
"*.	c #F0B145",
"=.	c #EFC141",
"-.	c #F0C241",
";.	c #F0C342",
">.	c #EFC241",
",.	c #7FAA33",
"'.	c #EEC95D",
").	c #80A933",
"!.	c #EFAF44",
"~.	c #EDC85C",
"{.	c #F0E2A4",
"].	c #E5BC40",
"^.	c #80AB34",
"/.	c #F0E1A4",
"(.	c #E5BB3F",
"_.	c #E4BB3F",
":.	c #EEC85C",
"<.	c #E10013",
"[.	c #EFC041",
"}.	c #EFA63C",
"|.	c #81AB33",
"1.	c #F0B245",
"2.	c #F0C242",
"3.	c #F0C442",
"4.	c #7FA832",
"5.	c #E7C041",
"6.	c #759D2F",
"7.	c #739A2E",
"8.	c #F0A93E",
"9.	c #EFA53C",
"0.	c #749B2D",
"a.	c #81AA34",
"b.	c #7BA331",
"c.	c #749A2D",
"d.	c #83AD34",
"e.	c #82AB34",
". + @ # $ $ @ % $ & * = - ; > . , ' ' & . . @ + . ) @ ! ~ . ~ + . + @ . . . { { ] > . ] ^ . / $ $ @ ",
". . . ( ~ ( ) ) ~ $ . > { _ * : < ^ . . . . . . . @ [ ) . . ~ + . } | . . . 1 ^ 2 3 . < { ) ( ~ ( $ ",
"@ @ @ ~ @ $ . ) ~ $ ) @ 4 5 > ^ 6 7 8 $ 9 + . ; = > ) . # @ $ & . ~ 0 . . . ( $ : a . 6 4 @ $ $ $ b ",
"~ ~ c c $ a . ) c $ $ [ + / . . & | | d + ( . ] e ; . & # ' & . . ' ( & . . ( ' . & & . ' c & > a + ",
"~ + ) ) f g ^ . ) ' ' $ ~ h + $ ( i | d + ( . f j ; & ( 3 k ( l . ) # ( $ . ) ) & ' ( . 7 m / ] n ^ ",
"+ ] { o p o > . + + + . @ 7 $ $ ~ 8 7 ) $ + . ^ q . + + ^ r + > o { s + + + . 9 t ~ ~ + ~ 7 + ; u r ",
"> n v w { . . ) ~ $ . . . . . $ ~ ) . . . . . . . [ [ . . . . o j e u . @ ~ ) [ x 8 ~ ~ + ) c 4 j e ",
"> n v 3 > . . ) ~ $ ; y 2 y ; . ) . ^ k s . . . . & ' | 7 . ( $ ^ z A . - B a [ x 8 ~ ) 8 m d . * _ ",
"> C 2 D . ) d + ( d ^ n u E s ^ . ^ ] n : d ) & . & @ F G ) ( + . { C ^ r B H [ I 7 ( . 7 h / . > { ",
". ^ * . d ~ ! h ) ' + ^ - w 2 r . k n ] ~ J ( ' . @ 7 F h ( ) & . a ; _ ^ # [ @ d ) ) . 1 ~ & . . # ",
". t 8 ) ) [ K K + + + + > q y L + M M 4 m i + + + + ' 7 t ~ + $ . . . o . + + + + ) . . ) + + + + + ",
") ! F / . d | i ~ $ ) c + a z { ~ B B # ! i . $ ~ / . . + ~ ~ + . . . . . . . $ c ) . . . ) c ~ ~ $ ",
"~ $ . ( + ) ( ( . . ) c ~ ~ ~ ~ ~ ) . . + ~ ~ 8 N b / ~ + . . 7 F G ( . @ ~ ) : O * . . r y ^ . . @ ",
"@ $ $ 1 + $ & 4 ] a ) @ @ [ ~ c @ ) . . $ ( ~ 0 | + & @ d . $ 0 F 0 @ . + @ . ; P o ] $ 6 - > . . + ",
") @ ~ ) + l r j < : . . . ) ( @ . . . . . ) ~ ~ ~ / . . . . ~ m F c . . . . . . ^ y < ~ ( ' & . . . ",
"@ } I [ + & 5 o E n - > Q r a ) . + + & d R S S S S T U V . $ + [ 1 + . + @ . . H ] Q $ $ d @ @ @ ) ",
"~ | F ~ d . . a C w j : - W * . / ' @ S S X X X Y Y Y Z ` V S . . + @ . @ ~ ) . ) . . / d @ ~ c @ ) ",
"~ | F / . . . . . P w v - . . $ ~ S S Y Y X X X Y Y Y Y `  .Y S S . . . @ ~ ) $ c ) . ~ ..K 7 @ . . ",
"@ m | + ) . $ $ . ] g z Q . $ + R +.Y @.Y Y X X #.Y X Y `  .Y Y #.T $ $ + @ d @ 8 @ $ @ 7 G ( + . . ",
". @ ~ ~ + ) ( ( . @ ( & . & ( R +.Y Y Z #.Y $.%.&.$.$.$.#.Z Y `  .Y R ~ $ . ( G x 8 ~ . . . . . . . ",
". @ ~ ) . ) ( ( . @ 0 | t . S +.Y Y Y Y *.*.=.-.;.=.=.>.$.%.X X Y Y X S ,.O > ) d ( ~ . . ; M C . @ ",
". + @ ] * & + $ Q & t x 8 $ S +.Y X X $.'.;.=.>.;.=.=.=.=.>.R X Y X X S o r : : ] $ @ . ; ).E C . + ",
". . . u r . . * v 6 + i m R +.Y Y =.!.~.>.>.>.>.>.>.=.=.=.>.=.S Y X X Y S . O E E 5 . . r < j P . . ",
"+ ) . p - ).D * v 6 # ~ [ S {.#.Y $.~.>.=.=.>.=.=.=.=.=.=.>.=.=.S ].].Y S . : ^.E z r . g y q f . $ ",
"~ $ . . { 2 * * v 6 . . S /.Z ` Y $.~.>.=.=.>.=.=.=.=.>.>.>.>.=.R (._.Y Y S . : j < v . { z a . . @ ",
". @ ~ ) + ( ) . . . ) c S +.Y #.&.:.>.>.>.=.=.<.<.<.>.>.=.[.>.>.>.}._.Y X R ) $ ' |.j . + ( & c x @ ",
". @ ~ ) ) + & / 7 @ + + S Y Y #.1.:.-.2.-.>.<.=.[.=.=.>.=.=.>.>.>.R ].Y X S . ) $ : { . $ + + @ 8 d ",
". @ ~ ) . . . d F G ( & S +.Y @.1.-.-.;.2.>.<.=.[.=.=.>.>.>.>.>.>.R X Y Y S . . . . . . . ) c @ . . ",
". ) $ . : r ^ ) [ + d @ S Y Y Y %.=.=.-.-.>.<.=.[.=.=.>.-.;.>.>.>.S X Y Y S + d . . . @ # . $ / . 7 ",
". > D a { y ^ . ) . $ ~ R Y Y Y $.=.=.=.>.=.<.=.[.=.>.=.2.3.-.-.>.S Y Y Y S ( ' ) ) / ~ + . a a ) } ",
"> n v w { . . ) ~ $ + i R X X X $.>.=.=.=.>.>.<.<.<.=.=.-.;.3.;.>.S Y  .#.S . $ 7 K F ~ + * O P . . ",
"k j E 6 ^ & + @ ~ $ + i R X ].].X S >.=.=.>.>.=.=.=.=.=.=.-.;.-.R ` Z Y Y S ' + + | F $ ) > f 4.z ; ",
"v E j a . ) ( ~ ~ $ + i 7 S _._.X S >.>.>.>.>.=.=.=.=.=.=.>.;.-.R ` 5.X S . ( @ $ | F . . . . 6 < ] ",
"j o ; . . . ) / / . $ 7 @ S X X X X R =.2.;.>.>.=.>.>.=.=.=.=.S X Y @.X R [ $ d @ @ b [ [ @ . : j 5 ",
"g > $ . & # . . . 5 3 + # . S X Y X X S ;.;.2.-.>.>.-.2.-.=.R X Y X X S + @ 6.c c ) . @ 7 7 ) ; g > ",
") @ ~ ) d ( ) . . W y ^ . . R X Y Y Y Y V U 3.;.>.>.-.3.V S Y Y Y X X S . . | ! ( ) . . 7.! $ . . @ ",
"@ $ $ . & $ @ ' . r _ a s z a S X X Y Y Y #.8.V S V V T Y Y X X Y X S . . . @ + / . . . d @ @ + . ) ",
"~ $ . . . ) ( ( . P z a - E 5 $ R X Y Y Y Y Z ` X Z Z X X Y X X Y S . . . . . . . . . . . ) c @ . . ",
") ! F / 7 i 7 ( . . ) c ~ c ) . . 9.9.].X Y Y Y Y Y Y Y Y Y Y S S W u . @ ~ ) . ^ y v . . . . $ ~ $ ",
". t 8 + 8 K ( + . # + + + + + # . 7 0.R S X Y Y Y X X ].X S S . . s a.o : ] . ^ - M e . . & d c } + ",
". & ) ( 8 m $ . . + @ & . / @ $ * . . . + R S S S R R 9.}.( . . ) ) . _ E v D : e k z ) . ) @ 7 | @ ",
". ' ( ) $ $ . . . & ) . d [ $ 5 2 ^ . . & ) . . . [ c d $ ) . d ( ( @ ^ C w a : n b.l ( d . ) ) + @ ",
". ' ( > > . . . * > > * & ( # : v : ^ . . . * D . ' ' . . . ) + ( ~ ~ . { _ a ; g $ ~ ( d . ) & . ' ",
". . . O { . . * v 6 5 E - & ( 4 j v 2 * . D v n > . . . . . ~ + . m i . . . . $ ~ ~ ~ . . ) c @ . . ",
". p r ; b.. . ^ e k - { 3 & ( $ o M y ^ : a.] ^ + & ^ r : . + ) . @ t . . . + + @ } ... . a Q ] . d ",
"] n < $ l . ) 4 z E n 4 ) $ ( @ . P g > p = ( ~ c.$ ; y - * 5 ^ . . . 5 a . 1 + $ | F ) & * k C 3 $ ",
"E E j > . ) @ 1 a r r + c c ~ @ . > 4 @ ) a & @ i + . ^ s O E g . . D E : . & . $ | F c d . D o 2 3 ",
"e _ P & & & + + . : : + @ [ c.~ . . & + $ . $ 1 m % ) . 5 P e g . f s W 5 . @ @ + 8 m @ + $ . : E ] ",
"O ; . ( + . . . . @ ( & . $ ! } . > > . . ) ~ @ . [ [ . . . n { . = 2 . . . | ! ( # . . + 1 ) 5 d.; ",
"; > . ) + ' & ) @ c ( & $ @ @ + . e.C ^ $ ( ~ @ . [ [ . # @ f . @ b.3 @ @ @ @ + $ ' @ . ) d @ + & . "};
