/* XPM */
static char * 2_xpm[] = {
"50 50 132 2",
"  	c None",
". 	c #79A230",
"+ 	c #779F2F",
"@ 	c #769E2F",
"# 	c #78A030",
"$ 	c #78A02F",
"% 	c #779E2E",
"& 	c #79A130",
"* 	c #7BA531",
"= 	c #82AC35",
"- 	c #80AA34",
"; 	c #7CA531",
"> 	c #7AA330",
", 	c #7AA231",
"' 	c #779E2F",
") 	c #78A130",
"! 	c #71972C",
"~ 	c #759C2E",
"{ 	c #7FA933",
"] 	c #7DA632",
"^ 	c #7BA431",
"/ 	c #78A12F",
"( 	c #769D2E",
"_ 	c #82AD34",
": 	c #7DA732",
"< 	c #86B137",
"[ 	c #769D2F",
"} 	c #72992D",
"| 	c #70962C",
"1 	c #769E2E",
"2 	c #85AF36",
"3 	c #7CA532",
"4 	c #7AA230",
"5 	c #7CA632",
"6 	c #7EA732",
"7 	c #749B2E",
"8 	c #739A2D",
"9 	c #77A030",
"0 	c #749A2E",
"a 	c #7AA331",
"b 	c #769F2F",
"c 	c #759D2E",
"d 	c #77A02F",
"e 	c #86B136",
"f 	c #7CA631",
"g 	c #80AA33",
"h 	c #71982D",
"i 	c #6F952C",
"j 	c #84AF35",
"k 	c #83AD35",
"l 	c #789F2F",
"m 	c #72982D",
"n 	c #83AE35",
"o 	c #7EA832",
"p 	c #7FA833",
"q 	c #7FA932",
"r 	c #81AB34",
"s 	c #7EA833",
"t 	c #749C2E",
"u 	c #86B036",
"v 	c #87B237",
"w 	c #85B035",
"x 	c #6F942B",
"y 	c #84AE35",
"z 	c #82AC34",
"A 	c #84AE34",
"B 	c #84AE36",
"C 	c #81AC34",
"D 	c #7AA431",
"E 	c #85B036",
"F 	c #6E932B",
"G 	c #73992D",
"H 	c #79A330",
"I 	c #71962C",
"J 	c #70972C",
"K 	c #70952C",
"L 	c #81AA33",
"M 	c #84AF36",
"N 	c #EFA53C",
"O 	c #EFA73D",
"P 	c #EFA63D",
"Q 	c #E5BD40",
"R 	c #E5BC40",
"S 	c #E4BB3F",
"T 	c #83AE34",
"U 	c #E5BE40",
"V 	c #80AB33",
"W 	c #EFE1A4",
"X 	c #7EA733",
"Y 	c #EFAF45",
"Z 	c #F0B045",
"` 	c #F0B145",
" .	c #E6BF41",
"..	c #82AD35",
"+.	c #F0A83D",
"@.	c #EFC141",
"#.	c #EFC241",
"$.	c #F0C241",
"%.	c #F0C342",
"&.	c #EDC85C",
"*.	c #F0C242",
"=.	c #F0C442",
"-.	c #71972D",
";.	c #EEC95C",
">.	c #F0A73D",
",.	c #E6BF40",
"'.	c #EEC85C",
").	c #F0AA3E",
"!.	c #F0A93D",
"~.	c #EFA63C",
"{.	c #E10013",
"].	c #80A933",
"^.	c #EDC75C",
"/.	c #80AB34",
"(.	c #E6C041",
"_.	c #F0B246",
":.	c #EFC041",
"<.	c #81AB33",
"[.	c #F0B245",
"}.	c #E6BE40",
"|.	c #E7C041",
"1.	c #7FA832",
"2.	c #F0A93E",
"3.	c #759D2F",
"4.	c #E7C141",
"5.	c #739A2E",
"6.	c #749B2D",
"7.	c #81AA34",
"8.	c #7BA331",
"9.	c #749A2D",
"0.	c #83AD34",
"a.	c #82AB34",
". + @ # $ $ @ % $ & * = - ; > . , ' ' & . . @ + . ) @ ! ~ . ~ + . + @ . . . { { ] > . ] ^ . / $ $ @ ",
". . . ( ~ ( ) ) ~ $ . > { _ * : < ^ . . . . . . . @ [ ) . . ~ + . } | . . . 1 ^ 2 3 . < { ) ( ~ ( $ ",
"@ @ @ ~ @ $ . ) ~ $ ) @ 4 5 > ^ 6 7 8 $ 9 + . ; = > ) . # @ $ & . ~ 0 . . . ( $ : a . 6 4 @ $ $ $ b ",
"~ ~ c c $ a . ) c $ $ [ + / . . & | | d + ( . ] e ; . & # ' & . . ' ( & . . ( ' . & & . ' c & > a + ",
"~ + ) ) f g ^ . ) ' ' $ ~ h + $ ( i | d + ( . f j ; & ( 3 k ( l . ) # ( $ . ) ) & ' ( . 7 m / ] n ^ ",
"+ ] { o p o > . + + + . @ 7 $ $ ~ 8 7 ) $ + . ^ q . + + ^ r + > o { s + + + . 9 t ~ ~ + ~ 7 + ; u r ",
"> n v w { . . ) ~ $ . . . . . $ ~ ) . . . . . . . [ [ . . . . o j e u . @ ~ ) [ x 8 ~ ~ + ) c 4 j e ",
"> n v 3 > . . ) ~ $ ; y 2 y ; . ) . ^ k s . . . . & ' | 7 . ( $ ^ z A . - B a [ x 8 ~ ) 8 m d . * _ ",
"> C 2 D . ) d + ( d ^ n u E s ^ . ^ ] n : d ) & . & @ F G ) ( + . { C ^ r B H [ I 7 ( . 7 h / . > { ",
". ^ * . d ~ ! h ) ' + ^ - w 2 r . k n ] ~ J ( ' . @ 7 F h ( ) & . a ; _ ^ # [ @ d ) ) . 1 ~ & . . # ",
". t 8 ) ) [ K K + + + + > q y L + M M 4 m i + + + + ' 7 t ~ + $ . . . o . + + + + ) . . ) + + + + + ",
") ! F / . d | i ~ $ ) c + a z { ~ B B # ! N O O P O O O O ~ ~ + . . . . . . . $ c ) . . . ) c ~ ~ $ ",
"~ $ . ( + ) ( ( . . ) c ~ ~ ~ ~ ~ ) . O O Q Q R S Q Q Q Q O O 7 F G ( . @ ~ ) : T * . . r y ^ . . @ ",
"@ $ $ 1 + $ & 4 ] a ) @ @ [ ~ c @ O O U Q Q Q R S Q Q Q Q U Q P N 0 @ . + @ . ; V o ] $ 6 - > . . + ",
") @ ~ ) + l r j < : . . . ) ( @ O W U U U Q Q Q Q Q U U U U Q R S P . . . . . . ^ y < ~ ( ' & . . . ",
"@ } I [ + & 5 o E n - > X r a O W Q Q Q Q Q Y Y Y Y Z `  .U Q Q Q Q O . + @ . . H ] X $ $ d @ @ @ ) ",
"~ | F ~ d . . a C w j : - ..+.W Q Q Q Q Y Y @.@.#.#.$.%.` Z U U U Q Q O @ ~ ) . ) . . / d @ ~ c @ ) ",
"~ | F / . . . . . V w v - . O W Q Q U Y &.@.@.@.#.#.#.#.*.=.O U U U U O @ ~ ) $ c ) . ~ -.K 7 @ . . ",
"@ m | + ) . $ $ . ] g z X O W Q Q @.Z ;.$.#.@.@.$.#.@.#.*.=.#.>.,.U Q Q O @ d @ 8 @ $ @ 7 G ( + . . ",
". @ ~ ~ + ) ( ( . @ ( & . O W Q U Y '.%.$.#.#.$.=.@.@.#.$.%.#.*.).U Q Q O . ( G x 8 ~ . . . . . . . ",
". @ ~ ) . ) ( ( . @ 0 | P W U U U Y &.$.%.%.@.$.%.@.@.#.#.$.@.@.>.U Q Q  .!.> ) d ( ~ . . ; M C . @ ",
". + @ ] * & + $ X & t x ~.W U U Y &.@.#.*.%.@.{.{.{.@.@.@.#.@.@.#.O Q U ,.+.: : ] $ @ . ; ].E C . + ",
". . . u r . . * v 6 + i ~.Q Q U Y ^.@.@.#.#.{.#.#.#.@.@.@.#.@.@.#.P Q U U O T E E 5 . . r < j V . . ",
"+ ) . p - ].D * v 6 # ~ P W ,.,.Y @.@.#.@.@.{.@.@.@.@.@.@.#.@.@.@.~.R U U O : /.E z r . g y q f . $ ",
"~ $ . . { 2 * * v 6 . . O U (. .Y #.#.#.@.@.{.@.@.@.@.#.#.#.#.@.@.N S U U O . : j < v . { z a . . @ ",
". @ ~ ) + ( ) . . . ) c O U U ,._.$.#.#.#.@.{.@.@.@.#.#.@.:.#.#.#.~.S U Q P ) $ ' <.j . + ( & c x @ ",
". @ ~ ) ) + & / 7 @ + + O U U ,.[.$.$.*.$.#.@.{.{.{.@.#.@.@.#.#.#.P R U Q O . ) $ : { . $ + + @ 8 d ",
". @ ~ ) . . . d F G ( & O U U }.(.>.$.%.*.#.#.@.:.@.@.#.#.#.#.#.O Q Q U U O . . . . . . . ) c @ . . ",
". ) $ . : r ^ ) [ + d @ # O U U ,.O @.$.$.#.@.@.:.@.@.#.$.%.#.#.O Q Q U O . + d . . . @ # . $ / . 7 ",
". > D a { y ^ . ) . $ ~ @ O U U U Q P @.#.@.@.@.:.@.#.@.*.=.$.>.U U U U O . ( ' ) ) / ~ + . a a ) } ",
"> n v w { . . ) ~ $ + i 7 & P Q U U Q P @.#.#.#.#.#.@.@.$.%.). .U U U ).6 . . $ 7 K F ~ + * T V . . ",
"k j E 6 ^ & + @ ~ $ + i 7 / ~.R Q Q U Q O O #.@.@.@.@.@.O +.|.,.Q  .(.>.4 . ' + + | F $ ) > f 1.z ; ",
"v E j a . ) ( ~ ~ $ + i 7 $ | N Q Q U U U U O O P O O P Q U (.}.Q  .2.~ $ . ( @ $ | F . . . . 6 < ] ",
"j o ; . . . ) / / . $ 7 @ . + + O Q Q Q  .(.U U Q U U Q Q Q Q Q Q >.; / ' [ $ d @ @ b [ [ @ . : j 5 ",
"g > $ . & # . . . 5 3 + # . # ) . O O Q  .|. .}.U U U  .U Q Q O O ) $ . + @ 3.c c ) . @ 7 7 ) ; g > ",
") @ ~ ) d ( ) . . ..y ^ . . 1 @ . . . O +.(.4.(.U U }.4. .O O . . @ ( . . . | ! ( ) . . 5.! $ . . @ ",
"@ $ $ . & $ @ ' . r _ a s z a + @ ) . . ^ +.2.+.O +.+.>.>.. @ $ . ) ) . . . @ + / . . . d @ @ + . ) ",
"~ $ . . . ) ( ( . V z a - E 5 $ ~ ) . . . a j g ( k k ~ + . ~ + . . . . . . . . . . . . . ) c @ . . ",
") ! F / 7 i 7 ( . . ) c ~ c ) . . | i 7 + . . . . . . . . . . . . ..u . @ ~ ) . ^ y v . . . . $ ~ $ ",
". t 8 + 8 K ( + . # + + + + + # . 7 6.@ + d . . . d ' 7 c + . . . s 7.o : ] . ^ - M e . . & d c } + ",
". & ) ( 8 m $ . . + @ & . / @ $ * . . . + 1 . . . [ 7 | } ( . . ) ) . _ E v D : e k z ) . ) @ 7 | @ ",
". ' ( ) $ $ . . . & ) . d [ $ 5 2 ^ . . & ) . . . [ c d $ ) . d ( ( @ ^ C w a : n 8.l ( d . ) ) + @ ",
". ' ( > > . . . * > > * & ( # : v : ^ . . . * D . ' ' . . . ) + ( ~ ~ . { _ a ; g $ ~ ( d . ) & . ' ",
". . . T { . . * v 6 5 E - & ( 4 j v 2 * . D v n > . . . . . ~ + . m i . . . . $ ~ ~ ~ . . ) c @ . . ",
". p r ; 8.. . ^ e k - { 3 & ( $ o M y ^ : 7.] ^ + & ^ r : . + ) . @ t . . . + + @ } -.. . a X ] . d ",
"] n < $ l . ) 4 z E n 4 ) $ ( @ . V g > p = ( ~ 9.$ ; y - * 5 ^ . . . 5 a . 1 + $ | F ) & * k C 3 $ ",
"E E j > . ) @ 1 a r r + c c ~ @ . > 4 @ ) a & @ i + . ^ s T E g . . D E : . & . $ | F c d . D o 2 3 ",
"e _ V & & & + + . : : + @ [ 9.~ . . & + $ . $ 1 m % ) . 5 V e g . f s ..5 . @ @ + 8 m @ + $ . : E ] ",
"T ; . ( + . . . . @ ( & . $ ! } . > > . . ) ~ @ . [ [ . . . n { . = 2 . . . | ! ( # . . + 1 ) 5 0.; ",
"; > . ) + ' & ) @ c ( & $ @ @ + . a.C ^ $ ( ~ @ . [ [ . # @ f . @ 8.3 @ @ @ @ + $ ' @ . ) d @ + & . "};
